<svg width="64" height="64" viewBox="0 0 64 64" fill="none" xmlns="http://www.w3.org/2000/svg">
<rect x="0.5" y="0.5" width="63" height="63" rx="3.5" fill="#F2F5FA"/>
<path d="M32 22C37.523 22 42 26.477 42 32C42 37.523 37.523 42 32 42C26.477 42 22 37.523 22 32C22 26.477 26.477 22 32 22ZM32 27C31.8188 27 31.6437 27.0656 31.5071 27.1848C31.3705 27.3039 31.2816 27.4684 31.257 27.648L31.25 27.75V31.25H27.75C27.56 31.2501 27.3771 31.3222 27.2382 31.452C27.0994 31.5817 27.0149 31.7593 27.002 31.9489C26.989 32.1385 27.0485 32.3259 27.1684 32.4733C27.2884 32.6207 27.4597 32.7171 27.648 32.743L27.75 32.75H31.25V36.25C31.2501 36.44 31.3222 36.6229 31.452 36.7618C31.5817 36.9006 31.7593 36.9851 31.9489 36.998C32.1385 37.011 32.3259 36.9515 32.4733 36.8316C32.6207 36.7117 32.7171 36.5402 32.743 36.352L32.75 36.25V32.75H36.25C36.44 32.7499 36.6229 32.6778 36.7618 32.548C36.9006 32.4183 36.9851 32.2407 36.998 32.0511C37.011 31.8615 36.9515 31.6741 36.8316 31.5267C36.7117 31.3793 36.5402 31.2829 36.352 31.257L36.25 31.25H32.75V27.75C32.75 27.5511 32.671 27.3603 32.5303 27.2197C32.3897 27.079 32.1989 27 32 27Z" fill="#227EFF"/>
<rect x="0.5" y="0.5" width="63" height="63" rx="3.5" stroke="#227EFF" stroke-dasharray="2 2"/>
</svg>
