<svg width="31" height="35" viewBox="0 0 31 35" fill="none" xmlns="http://www.w3.org/2000/svg">
<path d="M4.2898 0.111511L0.0012208 0.111511L0.00122071 8.98597C1.43997 8.98534 2.87566 9.13503 4.28979 9.43311L4.2898 0.111511Z" fill="#FF7F36"/>
<path d="M22.6875 30.1407C22.952 31.7315 23.0846 33.3465 23.0836 34.9648L31.001 34.9648L31.001 30.1407L22.6875 30.1407Z" fill="#FF7F36"/>
<path d="M15.3221 21.1433C14.4243 19.8865 13.4078 18.743 12.2905 17.733C9.95412 15.6174 7.21678 14.1341 4.28983 13.3976C2.88147 13.044 1.44283 12.8656 -0.000182871 12.8655L-0.000182922 17.687C1.45097 17.6871 2.89482 17.9181 4.28839 18.3734C6.07399 18.9586 7.74961 19.9055 9.23286 21.1677C10.3799 22.141 11.4004 23.29 12.2645 24.5813C13.3832 26.2497 14.222 28.1336 14.7399 30.1406C15.1436 31.7084 15.3479 33.3326 15.3467 34.9648L19.6353 34.9648C19.6358 33.3425 19.4785 31.725 19.1661 30.1411C18.5149 26.85 17.1997 23.7715 15.3221 21.1433Z" fill="#FF7F36"/>
<path d="M17.7724 18.3857L23.6216 11.8065L20.5899 8.39621L14.7408 14.9749C15.2862 15.4862 15.8124 16.0265 16.3196 16.5956C16.8307 17.1689 17.3158 17.7676 17.7724 18.3857Z" fill="#FF7F36"/>
</svg>
