<svg width="72" height="72" viewBox="0 0 72 72" fill="none" xmlns="http://www.w3.org/2000/svg">
<circle cx="36" cy="36" r="34" fill="#07D571" stroke="#D3FDE9" stroke-width="4"/>
<path d="M42 32.5333L30 25.6133" stroke="#FFF7E6" stroke-width="2" stroke-linecap="round" stroke-linejoin="round"/>
<path d="M48 41.3334V30.6667C47.9995 30.1991 47.8761 29.7398 47.6421 29.3349C47.408 28.9301 47.0717 28.5938 46.6667 28.36L37.3333 23.0267C36.9279 22.7927 36.4681 22.6694 36 22.6694C35.5319 22.6694 35.0721 22.7927 34.6667 23.0267L25.3333 28.36C24.9284 28.5938 24.592 28.9301 24.3579 29.3349C24.1239 29.7398 24.0005 30.1991 24 30.6667V41.3334C24.0005 41.801 24.1239 42.2603 24.3579 42.6651C24.592 43.07 24.9284 43.4062 25.3333 43.64L34.6667 48.9734C35.0721 49.2074 35.5319 49.3306 36 49.3306C36.4681 49.3306 36.9279 49.2074 37.3333 48.9734L46.6667 43.64C47.0717 43.4062 47.408 43.07 47.6421 42.6651C47.8761 42.2603 47.9995 41.801 48 41.3334Z" stroke="#FFF7E6" stroke-width="2" stroke-linecap="round" stroke-linejoin="round"/>
<path d="M24.3601 29.28L36.0001 36.0134L47.6401 29.28" stroke="#FFF7E6" stroke-width="2" stroke-linecap="round" stroke-linejoin="round"/>
<path d="M36 49.44V36" stroke="#FFF7E6" stroke-width="2" stroke-linecap="round" stroke-linejoin="round"/>
</svg>
