<svg width="27" height="20" viewBox="0 0 27 20" fill="none" xmlns="http://www.w3.org/2000/svg">
<path d="M22.5495 12.2095C22.8112 8.77048 19.6542 7.3643 19.6542 7.3643L18.8954 5.84747L18.648 4.86139H19.6312C20.1206 4.86139 20.5362 4.46097 20.5269 3.97162C20.5181 3.49702 20.1306 3.11504 19.6542 3.11504H17.5291C17.4314 3.11504 17.3357 3.13185 17.2455 3.16299C17.4277 2.91811 17.5029 2.59659 17.4232 2.27753C17.282 1.71276 16.7099 1.36931 16.1451 1.51071L12.4479 2.40396V2.24802C12.4479 1.44903 11.8001 0.80127 11.0011 0.80127H8.35192C7.55293 0.80127 6.90496 1.44882 6.90496 2.24802V9.63422H5.64141C6.00105 9.63422 6.29266 9.34262 6.29266 8.98298V2.82569C6.29266 2.46585 6.00105 2.17425 5.64141 2.17425H0.872265C0.512422 2.17425 0.220818 2.46585 0.220818 2.82569V8.98298C0.220818 9.34262 0.512422 9.63422 0.872265 9.63422H2.55713C2.28664 9.63422 2.06716 9.8537 2.06716 10.1242V12.2878C2.06716 12.5583 2.28664 12.7775 2.55713 12.7775H3.1678C1.5024 13.8372 0.346025 15.5554 0.0142569 17.5213C-0.0902533 18.1401 0.393362 18.7026 1.02104 18.7026C1.52023 18.7026 1.94216 18.3405 2.027 17.8485C2.42967 15.5104 4.47254 13.7245 6.92546 13.7245C9.66854 13.7245 11.9008 15.9585 11.896 18.7026H14.6836C14.6824 17.9174 14.8658 17.1239 15.2543 16.3864H14.3756C14.5617 16.261 14.717 16.0852 14.8176 15.8665L17.2685 10.5406C17.6199 9.77685 17.1431 8.88585 16.3101 8.75736L12.4479 8.16125V6.35855C12.2301 6.3108 11.8604 6.37269 11.5714 6.0567L9.52817 3.81567L11.9708 5.4655C12.1098 5.55935 12.269 5.61857 12.4356 5.63866C16.6426 6.13908 16.4142 6.12125 16.5338 6.12125C17.0601 6.12125 17.5148 5.7278 17.5789 5.19234C17.648 4.61446 17.2357 4.08986 16.6576 4.0208L12.9391 3.57612L10.7081 2.06912L12.7709 2.83758L16.7072 3.30828C17.6802 3.42468 18.4095 4.31937 18.2855 5.29131C18.2068 5.90669 17.8197 6.40793 17.2986 6.65937L18.8054 12.6695C18.9029 13.0587 19.2505 13.338 19.6517 13.3378C22.6001 13.3365 24.9998 15.7321 25.0049 18.6789V18.6953C25.0049 19.1774 25.3957 19.5684 25.8779 19.5684C26.3535 19.5684 26.7402 19.1883 26.7508 18.7153C26.751 18.7063 26.751 18.6967 26.751 18.6885C26.751 15.8059 25.0235 13.3193 22.5495 12.2095ZM12.8774 12.7775C13.1479 12.7775 13.3672 12.5583 13.3672 12.2878V10.8691L14.2623 11.0072L12.6108 14.5956C12.0899 13.8745 11.4352 13.2562 10.6831 12.7775H12.8774Z" fill="#0C0C0C"/>
</svg>
