<svg width="48" height="49" viewBox="0 0 48 49" fill="none" xmlns="http://www.w3.org/2000/svg">
<circle cx="24" cy="24.5" r="24" fill="#FFF1F0"/>
<path d="M24 14.5C18.48 14.5 14 18.98 14 24.5C14 30.02 18.48 34.5 24 34.5C29.52 34.5 34 30.02 34 24.5C34 18.98 29.52 14.5 24 14.5ZM24 32.5C19.58 32.5 16 28.92 16 24.5C16 22.65 16.63 20.95 17.69 19.6L28.9 30.81C27.55 31.87 25.85 32.5 24 32.5ZM30.31 29.4L19.1 18.19C20.45 17.13 22.15 16.5 24 16.5C28.42 16.5 32 20.08 32 24.5C32 26.35 31.37 28.05 30.31 29.4Z" fill="#E02020"/>
</svg>
