<svg width="24" height="24" viewBox="0 0 24 24" fill="none" xmlns="http://www.w3.org/2000/svg">
<path d="M9.3 16.5C9.15379 17.0145 8.85172 17.4711 8.43536 17.8068C8.019 18.1426 7.50881 18.3411 6.975 18.375C5.9625 18.375 5.4 17.55 5.7 16.5C5.84621 15.9855 6.14828 15.5289 6.56464 15.1932C6.98101 14.8574 7.49119 14.6589 8.025 14.625C9 14.625 9.6 15.45 9.3 16.5ZM18.3 16.5C18.1538 17.0145 17.8517 17.4711 17.4354 17.8068C17.019 18.1426 16.5088 18.3411 15.975 18.375C14.9625 18.375 14.4 17.55 14.7 16.5C14.8462 15.9855 15.1483 15.5289 15.5646 15.1932C15.981 14.8574 16.4912 14.6589 17.025 14.625C18 14.625 18.6 15.45 18.3 16.5Z" fill="#A6B1C9"/>
<path d="M20.6625 11.625L19.1625 12.375H15.375C15.375 12.375 16.5375 7.6125 16.7625 6.7875C16.9875 5.9625 16.9875 5.625 16.125 5.625H6.375L3.375 16.125H5.85C6.04433 15.7026 6.34888 15.3404 6.73162 15.0765C7.11435 14.8125 7.56114 14.6566 8.025 14.625C8.21745 14.6175 8.4092 14.6524 8.58663 14.7274C8.76407 14.8023 8.92284 14.9153 9.05168 15.0585C9.18052 15.2016 9.27628 15.3714 9.33216 15.5557C9.38803 15.74 9.40266 15.9344 9.375 16.125H14.85C15.0443 15.7026 15.3489 15.3404 15.7316 15.0765C16.1144 14.8125 16.5611 14.6566 17.025 14.625C17.2175 14.6175 17.4092 14.6524 17.5866 14.7274C17.7641 14.8023 17.9228 14.9153 18.0517 15.0585C18.1805 15.2016 18.2763 15.3714 18.3322 15.5557C18.388 15.74 18.4027 15.9344 18.375 16.125H21.375C21.9375 16.125 22.125 15.8625 22.125 15.375V12.375L20.6625 11.625Z" fill="#C3D6F9"/>
<path d="M19.1625 12.375L20.6625 11.625L18.375 8.625H16.3125L15.375 12.375H19.1625Z" fill="#E0EAFC"/>
<path d="M6.375 5.625H16.125C16.9875 5.625 16.9125 6.225 16.7625 6.7875C16.6125 7.35 15.375 12.375 15.375 12.375H19.1625L20.6625 11.625L22.125 12.375V15.375C22.125 15.8625 21.9375 16.125 21.375 16.125H18.375M3.375 16.125H5.85M9.375 16.125H14.85" stroke="#2E4369" stroke-linecap="round" stroke-linejoin="round"/>
<path d="M16.35 8.625H18.375L20.6625 11.625M11.625 8.625H3.375M10.125 11.625H1.875M9.3 16.5C9.15379 17.0145 8.85172 17.4711 8.43536 17.8068C8.019 18.1426 7.50881 18.3411 6.975 18.375C5.9625 18.375 5.4 17.55 5.7 16.5C5.84621 15.9855 6.14828 15.5289 6.56464 15.1932C6.981 14.8574 7.49119 14.6589 8.025 14.625C9 14.625 9.6 15.45 9.3 16.5ZM18.3 16.5C18.1538 17.0145 17.8517 17.4711 17.4354 17.8068C17.019 18.1426 16.5088 18.3411 15.975 18.375C14.9625 18.375 14.4 17.55 14.7 16.5C14.8462 15.9855 15.1483 15.5289 15.5646 15.1932C15.981 14.8574 16.4912 14.6589 17.025 14.625C18 14.625 18.6 15.45 18.3 16.5Z" stroke="#2E4369" stroke-linecap="round" stroke-linejoin="round"/>
</svg>
