<svg width="148" height="147" viewBox="0 0 148 147" fill="none" xmlns="http://www.w3.org/2000/svg">
<path d="M71.2823 116.765C91.7923 116.765 108.42 100.137 108.42 79.5538C108.42 58.9705 91.719 42.3428 71.2823 42.3428C50.7723 42.3428 34.1445 58.9705 34.1445 79.5538C34.1445 100.137 50.7723 116.765 71.2823 116.765Z" fill="#EAEEF9"/>
<path d="M106.001 55.1623C107.66 55.1623 109.005 53.8177 109.005 52.159C109.005 50.5004 107.66 49.1558 106.001 49.1558C104.343 49.1558 102.998 50.5004 102.998 52.159C102.998 53.8177 104.343 55.1623 106.001 55.1623Z" fill="#EAEEF9"/>
<path d="M110.397 43.4418C111.529 43.4418 112.448 42.5236 112.448 41.3908C112.448 40.2581 111.529 39.3398 110.397 39.3398C109.264 39.3398 108.346 40.2581 108.346 41.3908C108.346 42.5236 109.264 43.4418 110.397 43.4418Z" fill="#EAEEF9"/>
<path d="M36.1213 55.0888C37.254 55.0888 38.1723 54.1706 38.1723 53.0378C38.1723 51.9051 37.254 50.9868 36.1213 50.9868C34.9886 50.9868 34.0703 51.9051 34.0703 53.0378C34.0703 54.1706 34.9886 55.0888 36.1213 55.0888Z" fill="#EAEEF9"/>
<path d="M23.5961 94.6434C25.6998 94.6434 27.4051 92.938 27.4051 90.8344C27.4051 88.7307 25.6998 87.0254 23.5961 87.0254C21.4925 87.0254 19.7871 88.7307 19.7871 90.8344C19.7871 92.938 21.4925 94.6434 23.5961 94.6434Z" fill="#EAEEF9"/>
<path d="M127.881 67.8713H124.247V64.2373H121.132V67.8713H117.498V71.0901H121.132V74.7241H124.247V71.0901H127.881V67.8713Z" fill="url(#paint0_linear_5500_88811)"/>
<path d="M67.7431 33.4821H64.6365V30.3755H61.9738V33.4821H58.8672V36.2336H61.9738V39.3402H64.6365V36.2336H67.7431V33.4821Z" fill="url(#paint1_linear_5500_88811)"/>
<path d="M31.1792 64.4755H28.525V61.8213H26.2499V64.4755H23.5957V66.8264H26.2499V69.4807H28.525V66.8264H31.1792V64.4755Z" fill="url(#paint2_linear_5500_88811)"/>
<g filter="url(#filter0_d_5500_88811)">
<path d="M97.4069 72.3782L90.072 54.4675C88.7642 51.2833 85.3526 49.4638 81.9979 50.203L63.0637 54.2969C61.4716 54.6381 60.107 55.7184 59.311 57.1399L41.2865 91.483C40.5473 92.9045 41.0591 94.724 42.5374 95.4632L75.1748 112.635C76.5963 113.374 78.4158 112.862 79.1549 111.384L97.1794 77.0407C97.9755 75.6192 98.0323 73.9134 97.4069 72.3782ZM79.2687 65.1571C76.9374 63.963 76.0277 61.0632 77.2786 58.7319C78.4726 56.4007 81.3725 55.4909 83.7037 56.7419C86.035 57.9359 86.9447 60.8357 85.6938 63.167C84.4997 65.4982 81.5999 66.408 79.2687 65.1571Z" fill="url(#paint3_linear_5500_88811)"/>
</g>
<path d="M81.6006 60.779C96.441 53.103 102.297 41.6742 94.5646 36.7274C86.8317 31.7807 79.2125 36.7274 77.2793 51.1129" stroke="#ADB6C8" stroke-width="3.6625" stroke-miterlimit="10" stroke-linecap="round" stroke-linejoin="round"/>
<path d="M77.726 85.5574C78.7299 86.1132 80.0668 85.729 80.6226 84.7251C81.1783 83.7211 80.7942 82.3843 79.7902 81.8285C78.7863 81.2727 77.4494 81.6569 76.8937 82.6608C76.2982 83.7365 76.6504 84.962 77.726 85.5574Z" fill="#AAB2C5"/>
<path d="M72.0041 88.1806L71.0719 87.6645C71.2358 85.5068 69.5135 83.7102 67.3878 83.6577C66.5837 83.5873 65.6924 83.8434 65.0483 84.33L64.1161 83.8139C66.1355 82.0276 69.3522 82.3093 71.0271 84.3608C71.7929 85.3468 72.2487 86.7233 72.0041 88.1806Z" fill="#AAB2C5"/>
<path d="M63.3842 77.6179C64.3881 78.1737 65.725 77.7895 66.2808 76.7856C66.8365 75.7817 66.4524 74.4448 65.4484 73.889C64.4445 73.3333 63.1076 73.7174 62.5519 74.7214C62.0281 75.8367 62.3803 77.0622 63.3842 77.6179Z" fill="#AAB2C5"/>
<defs>
<filter id="filter0_d_5500_88811" x="24.8362" y="41.9816" width="89.1109" height="95.1612" filterUnits="userSpaceOnUse" color-interpolation-filters="sRGB">
<feFlood flood-opacity="0" result="BackgroundImageFix"/>
<feColorMatrix in="SourceAlpha" type="matrix" values="0 0 0 0 0 0 0 0 0 0 0 0 0 0 0 0 0 0 127 0" result="hardAlpha"/>
<feOffset dy="8.0575"/>
<feGaussianBlur stdDeviation="8.0575"/>
<feColorMatrix type="matrix" values="0 0 0 0 0.397708 0 0 0 0 0.47749 0 0 0 0 0.575 0 0 0 0.27 0"/>
<feBlend mode="normal" in2="BackgroundImageFix" result="effect1_dropShadow_5500_88811"/>
<feBlend mode="normal" in="SourceGraphic" in2="effect1_dropShadow_5500_88811" result="shape"/>
</filter>
<linearGradient id="paint0_linear_5500_88811" x1="122.69" y1="64.6016" x2="122.69" y2="70.4877" gradientUnits="userSpaceOnUse">
<stop stop-color="#B0BACC"/>
<stop offset="1" stop-color="#969EAE"/>
</linearGradient>
<linearGradient id="paint1_linear_5500_88811" x1="63.3058" y1="30.6869" x2="63.3058" y2="35.7187" gradientUnits="userSpaceOnUse">
<stop stop-color="#B0BACC"/>
<stop offset="1" stop-color="#969EAE"/>
</linearGradient>
<linearGradient id="paint2_linear_5500_88811" x1="27.3881" y1="62.0874" x2="27.3881" y2="66.3865" gradientUnits="userSpaceOnUse">
<stop stop-color="#B0BACC"/>
<stop offset="1" stop-color="#969EAE"/>
</linearGradient>
<linearGradient id="paint3_linear_5500_88811" x1="69.3728" y1="48.5834" x2="69.3728" y2="113.649" gradientUnits="userSpaceOnUse">
<stop stop-color="#FDFEFF"/>
<stop offset="0.9964" stop-color="#ECF0F5"/>
</linearGradient>
</defs>
</svg>
