<svg width="88" height="48" viewBox="0 0 88 48" fill="none" xmlns="http://www.w3.org/2000/svg">
<path fill-rule="evenodd" clip-rule="evenodd" d="M81.0822 47.2469L81.1414 36.2634C81.1514 34.4123 82.6601 32.9034 84.5112 32.8933C86.3624 32.8831 87.8549 34.3755 87.8449 36.2266L87.7857 47.2101L81.0822 47.2469Z" fill="#CBD6E0"/>
<path fill-rule="evenodd" clip-rule="evenodd" d="M70.3033 47.3058L70.4217 25.3435C70.4317 23.4924 71.9404 21.9835 73.7915 21.9733C75.6426 21.9632 77.1352 23.4556 77.1252 25.3067L77.0068 47.269L70.3033 47.3058Z" fill="#EDF2F7"/>
<path fill-rule="evenodd" clip-rule="evenodd" d="M57.9924 47.3749L58.179 12.7556C58.189 10.9045 59.6977 9.39563 61.5488 9.38546C63.4 9.37529 64.8925 10.8677 64.8825 12.7188L64.6959 47.3381L57.9924 47.3749Z" fill="#CBD6E0"/>
<path fill-rule="evenodd" clip-rule="evenodd" d="M47.2135 47.4329L47.3489 22.3064C47.3589 20.4553 48.8676 18.9464 50.7188 18.9362C52.5699 18.9261 54.0624 20.4185 54.0524 22.2696L53.917 47.3961L47.2135 47.4329Z" fill="#EDF2F7"/>
<path fill-rule="evenodd" clip-rule="evenodd" d="M34.9032 47.5024L35.1409 3.39038C35.1509 1.53926 36.6596 0.0303916 38.5107 0.0202236C40.3619 0.0100556 41.8544 1.50244 41.8444 3.35356L41.6066 47.4656L34.9032 47.5024Z" fill="#CBD6E0"/>
<path fill-rule="evenodd" clip-rule="evenodd" d="M24.1243 47.5606L24.3279 9.7771C24.3379 7.92598 25.8466 6.41711 27.6978 6.40694C29.5489 6.39677 31.0414 7.88916 31.0314 9.74027L30.8278 47.5238L24.1243 47.5606Z" fill="#EDF2F7"/>
<path fill-rule="evenodd" clip-rule="evenodd" d="M11.8137 47.6277L11.8778 35.7478C11.8877 33.8967 13.3964 32.3878 15.2476 32.3776C17.0987 32.3675 18.5912 33.8599 18.5812 35.711L18.5172 47.5909L11.8137 47.6277Z" fill="#CBD6E0"/>
<path fill-rule="evenodd" clip-rule="evenodd" d="M1.03476 47.6866L1.15314 25.7244C1.16312 23.8732 2.67184 22.3644 4.52295 22.3542C6.37407 22.344 7.8666 23.8364 7.85663 25.6875L7.73824 47.6498L1.03476 47.6866Z" fill="#EDF2F7"/>
</svg>
