<svg width="132" height="111" viewBox="0 0 132 111" fill="none" xmlns="http://www.w3.org/2000/svg">
<path d="M66.7 101.6C94.7 101.6 117.4 78.9 117.4 50.8C117.4 22.7 94.7 0 66.7 0C38.7 0 16 22.7 16 50.8C16 78.9 38.7 101.6 66.7 101.6Z" fill="#EAEEF9"/>
<path d="M123.2 29.9002C125.464 29.9002 127.3 28.0646 127.3 25.8002C127.3 23.5358 125.464 21.7002 123.2 21.7002C120.936 21.7002 119.1 23.5358 119.1 25.8002C119.1 28.0646 120.936 29.9002 123.2 29.9002Z" fill="#EAEEF9"/>
<path d="M129.2 13.8002C130.746 13.8002 132 12.5466 132 11.0002C132 9.4538 130.746 8.2002 129.2 8.2002C127.654 8.2002 126.4 9.4538 126.4 11.0002C126.4 12.5466 127.654 13.8002 129.2 13.8002Z" fill="#EAEEF9"/>
<path d="M12.5 32.8002C14.0464 32.8002 15.3 31.5466 15.3 30.0002C15.3 28.4538 14.0464 27.2002 12.5 27.2002C10.9536 27.2002 9.70001 28.4538 9.70001 30.0002C9.70001 31.5466 10.9536 32.8002 12.5 32.8002Z" fill="#EAEEF9"/>
<path d="M17.7 93.6998C20.5719 93.6998 22.9 91.3717 22.9 88.4998C22.9 85.6279 20.5719 83.2998 17.7 83.2998C14.8281 83.2998 12.5 85.6279 12.5 88.4998C12.5 91.3717 14.8281 93.6998 17.7 93.6998Z" fill="#EAEEF9"/>
<g filter="url(#filter0_d)">
<path d="M113.7 30.5002H27C25.1 30.5002 23.6 29.0002 23.6 27.1002V7.6002C23.6 5.7002 25.1 4.2002 27 4.2002H113.6C115.5 4.2002 117 5.7002 117 7.6002V27.1002C117.1 29.0002 115.5 30.5002 113.7 30.5002Z" fill="white"/>
</g>
<path d="M44.6 17.3003C44.6 19.5003 43.6 21.5003 42.1 22.9003C40.8 24.1003 39 24.8003 37.1 24.8003C35.2 24.8003 33.4 24.1003 32.1 22.9003C30.5 21.5003 29.6 19.5003 29.6 17.3003C29.6 13.2003 33 9.80029 37.1 9.80029C41.2 9.80029 44.6 13.2003 44.6 17.3003Z" fill="#DCE1EE"/>
<path d="M42.1 22.9002C40.8 24.1002 39 24.8002 37.1 24.8002C35.2 24.8002 33.4 24.1002 32.1 22.9002C32.7 22.7002 33.4 22.4002 34.3 22.0002C34.5 21.9002 34.7 21.7002 34.8 21.5002C34.9 21.4002 34.9 21.2002 34.9 21.1002V19.2002L34.8 19.1002C34.6 18.9002 34.5 18.6002 34.5 18.3002L34.3 18.2002C33.8 18.3002 33.9 17.8002 33.7 16.8002C33.7 16.4002 33.7 16.3002 33.9 16.2002L34.1 16.0002C33.2 13.9002 33.6 12.6002 34.6 12.1002C34.3 11.4002 34.3 11.2002 34.3 11.2002C34.3 11.2002 36.3 11.5002 36.9 11.4002C37.8 11.2002 39.1 11.4002 39.6 12.6002C40.4 12.9002 40.7 13.4002 40.8 14.0002C40.9 14.9002 40.4 15.9002 40.3 16.2002C40.4 16.3002 40.5 16.4002 40.4 16.7002C40.3 17.6002 40.3 18.2002 39.8 18.1002L39.4 19.0002C39.4 19.1002 39.4 19.1002 39.4 19.2002C39.4 19.3002 39.4 19.6002 39.4 21.2002C39.4 21.4002 39.5 21.6002 39.5 21.7002C39.6 21.9002 39.8 22.0002 39.9 22.1002C40.8 22.4002 41.5 22.7002 42.1 22.9002Z" fill="white"/>
<path d="M40.3263 16.3002C40.3263 16.092 40.2222 15.7798 40.1181 15.5716V15.4676C39.7018 14.6349 38.8692 14.3227 38.0365 14.3227C35.9549 14.2186 35.7467 14.6349 35.0181 14.0104C35.2263 14.3227 35.2263 14.8431 34.914 15.4676C34.7059 15.8839 34.2895 16.092 33.8732 16.1961C32.9365 14.0104 33.3528 12.6573 34.3936 12.1369C34.0814 11.4084 34.0814 11.2002 34.0814 11.2002C34.0814 11.2002 36.163 11.5124 36.7875 11.4084C37.7242 11.2002 39.0773 11.4084 39.5977 12.6573C40.4304 12.9696 40.7426 13.49 40.8467 14.1145C40.9508 14.8431 40.4304 15.8839 40.3263 16.3002Z" fill="#A2ABBC"/>
<path d="M39.5 21.7001V22.1001H34.8V21.6001C34.9 21.5001 34.9 21.3001 34.9 21.2001V19.3001L34.8 19.2001V19.1001C34.9 19.3001 35 19.4001 35.2 19.6001L36.7 20.6001C37 20.9001 37.5 20.9001 37.9 20.6001L39.3 19.4001L39.4 19.3001C39.4 19.4001 39.4 19.7001 39.4 21.3001C39.3 21.4001 39.4 21.5001 39.5 21.7001Z" fill="url(#paint0_linear)"/>
<path d="M69.2 15.1H50C49.5 15.1 49.2 14.7 49.2 14.3V11.8C49.2 11.3 49.6 11 50 11H69.2C69.7 11 70 11.4 70 11.8V14.3C70 14.8 69.7 15.1 69.2 15.1Z" fill="#CED6E2"/>
<path d="M92 23.6H50C49.5 23.6 49.2 23.2 49.2 22.8V20.3C49.2 19.8 49.6 19.5 50 19.5H92C92.5 19.5 92.8 19.9 92.8 20.3V22.8C92.8 23.3 92.4 23.6 92 23.6Z" fill="#CED6E2"/>
<g filter="url(#filter1_d)">
<path d="M113.7 96.0998H27C25.1 96.0998 23.6 94.5998 23.6 92.6998V73.1998C23.6 71.2998 25.1 69.7998 27 69.7998H113.6C115.5 69.7998 117 71.2998 117 73.1998V92.6998C117.1 94.5998 115.5 96.0998 113.7 96.0998Z" fill="white"/>
</g>
<path d="M44.6 82.8999C44.6 85.0999 43.6 87.0999 42.1 88.4999C40.8 89.6999 39 90.3999 37.1 90.3999C35.2 90.3999 33.4 89.6999 32.1 88.4999C30.5 87.0999 29.6 85.0999 29.6 82.8999C29.6 78.7999 33 75.3999 37.1 75.3999C41.2 75.3999 44.6 78.7999 44.6 82.8999Z" fill="#DCE1EE"/>
<path d="M42.1 88.4998C40.8 89.6998 39 90.3998 37.1 90.3998C35.2 90.3998 33.4 89.6998 32.1 88.4998C32.7 88.2998 33.4 87.9998 34.3 87.5998C34.5 87.4998 34.7 87.2998 34.8 87.0998C34.9 86.9998 34.9 86.7998 34.9 86.6998V84.7998L34.8 84.6998C34.6 84.4998 34.5 84.1998 34.5 83.8998L34.3 83.7998C33.8 83.8998 33.9 83.3998 33.7 82.3998C33.7 81.9998 33.7 81.8998 33.9 81.7998L34.1 81.5998C33.2 79.4998 33.6 78.1998 34.6 77.6998C34.3 76.9998 34.3 76.7998 34.3 76.7998C34.3 76.7998 36.3 77.0998 36.9 76.9998C37.8 76.7998 39.1 76.9998 39.6 78.1998C40.4 78.4998 40.7 78.9998 40.8 79.5998C40.9 80.4998 40.4 81.4998 40.3 81.7998C40.4 81.8998 40.5 81.9998 40.4 82.2998C40.3 83.1998 40.3 83.7998 39.8 83.6998L39.4 84.4998C39.4 84.5998 39.4 84.5998 39.4 84.6998C39.4 84.7998 39.4 85.0998 39.4 86.6998C39.4 86.8998 39.5 87.0998 39.5 87.1998C39.6 87.3998 39.8 87.4998 39.9 87.5998C40.8 88.0998 41.5 88.2998 42.1 88.4998Z" fill="white"/>
<path d="M40.3263 81.8998C40.3263 81.6917 40.2222 81.3794 40.1181 81.1712V81.0672C39.7018 80.2345 38.8692 79.9223 38.0365 79.9223C35.9549 79.8182 35.7467 80.2345 35.0181 79.61C35.2263 79.9223 35.2263 80.4427 34.914 81.0672C34.7059 81.4835 34.2895 81.6917 33.8732 81.7957C32.9365 79.61 33.3528 78.257 34.3936 77.7365C34.0814 77.008 34.0814 76.7998 34.0814 76.7998C34.0814 76.7998 36.163 77.112 36.7875 77.008C37.7242 76.7998 39.0773 77.008 39.5977 78.257C40.4304 78.5692 40.7426 79.0896 40.8467 79.7141C40.9508 80.5468 40.4304 81.4835 40.3263 81.8998Z" fill="#A2ABBC"/>
<path d="M39.5 87.2997V87.6997H34.8V87.1997C34.9 87.0997 34.9 86.8997 34.9 86.7997V84.8997L34.8 84.7997V84.6997C34.9 84.8997 35 84.9997 35.2 85.1997L36.7 86.1997C37 86.4997 37.5 86.4997 37.9 86.1997L39.3 84.9997L39.4 84.8997C39.4 84.9997 39.4 85.2997 39.4 86.8997C39.3 86.9997 39.4 87.1997 39.5 87.2997Z" fill="url(#paint1_linear)"/>
<path d="M69.2 80.7997H50C49.5 80.7997 49.2 80.3997 49.2 79.9997V77.4997C49.2 76.9997 49.6 76.6997 50 76.6997H69.2C69.7 76.6997 70 77.0997 70 77.4997V79.9997C70 80.3997 69.7 80.7997 69.2 80.7997Z" fill="#CED6E2"/>
<path d="M92 89.2997H50C49.5 89.2997 49.2 88.8997 49.2 88.4997V85.9997C49.2 85.4997 49.6 85.1997 50 85.1997H92C92.5 85.1997 92.8 85.5997 92.8 85.9997V88.4997C92.8 88.8997 92.4 89.2997 92 89.2997Z" fill="#CED6E2"/>
<g filter="url(#filter2_d)">
<path d="M99 63.3H12.4C10.5 63.3 9 61.8 9 59.9V40.4C9 38.5 10.5 37 12.4 37H99C100.9 37 102.4 38.5 102.4 40.4V59.9C102.5 61.8 100.9 63.3 99 63.3Z" fill="white"/>
</g>
<path d="M54.6 47.8998H35.4C34.9 47.8998 34.6 47.4998 34.6 47.0998V44.5998C34.6 44.0998 35 43.7998 35.4 43.7998H54.6C55.1 43.7998 55.4 44.1998 55.4 44.5998V47.0998C55.4 47.5998 55.1 47.8998 54.6 47.8998Z" fill="#CED6E2"/>
<path d="M77.4 56.4999H35.4C34.9 56.4999 34.6 56.0999 34.6 55.6999V53.1999C34.6 52.6999 35 52.3999 35.4 52.3999H77.3C77.8 52.3999 78.1 52.7999 78.1 53.1999V55.6999C78.2 56.0999 77.8 56.4999 77.4 56.4999Z" fill="#CED6E2"/>
<path d="M30.1 50.1001C30.1 52.2001 29.2 54.1001 27.8 55.5001C27.7 55.6001 27.7 55.6001 27.6 55.7001C26.3 56.9001 24.5 57.6001 22.6 57.6001C20.7 57.6001 19 56.9001 17.7 55.8001C17.7 55.8001 17.7 55.8001 17.6 55.8001C16 54.4001 15 52.4001 15 50.1001C15 46.0001 18.4 42.6001 22.5 42.6001C26.7 42.6001 30.1 46.0001 30.1 50.1001Z" fill="#DCE1EE"/>
<path d="M27.7706 55.6525C27.4664 54.9426 26.9594 54.3341 26.1481 53.9285C25.7425 53.7257 25.4382 53.6243 24.9312 53.6243H24.6269C23.9171 53.6243 23.8157 53.5228 23.8157 53.5228V52.3059C24.6269 51.6975 25.2354 50.8862 25.4382 49.9735C25.9453 49.8721 26.2495 49.4665 26.1481 48.9594C26.1481 48.7566 25.9453 48.5538 25.9453 48.3509C25.9453 48.2495 25.9453 48.1481 25.9453 48.0467C25.9453 47.9453 25.9453 47.9453 25.9453 47.8439C25.9453 47.7425 25.9453 47.7425 25.9453 47.6411C25.9453 47.2354 25.8439 46.9312 25.5396 46.5256C24.9312 45.4101 23.7143 44.7002 22.3959 44.7002C22.0917 44.7002 21.8889 44.7002 21.5847 44.8016C21.0776 44.903 20.672 45.1058 20.2663 45.4101C20.1649 45.5115 20.1649 45.5115 20.0635 45.6129C20.0635 45.6129 20.0635 45.6129 19.9621 45.7143C19.5565 46.1199 19.2522 46.627 19.0494 47.134C18.8466 47.6411 18.8466 48.2495 18.8466 48.858C18.8466 48.858 18.8466 48.858 18.8466 48.9594C18.8466 49.0608 18.8466 49.0608 18.8466 49.1622C18.8466 49.1622 18.8466 49.2636 18.7452 49.2636C18.948 49.0608 18.8466 49.365 18.948 49.5679C19.1508 50.0749 19.455 49.9735 19.8607 50.2777C19.8607 50.2777 19.8607 50.2777 19.7593 50.2777L19.3536 50.3791C17.1226 51.089 16.9198 53.4214 19.1508 53.9285C18.948 54.0299 18.8466 54.1313 18.7452 54.1313C18.1367 54.6384 17.7311 55.2468 17.5283 55.8553C18.8466 56.9708 20.5706 57.6806 22.4973 57.6806C24.4241 57.6806 26.2495 56.9708 27.5678 55.7539C27.6692 55.8553 27.7706 55.7539 27.7706 55.6525C27.8721 55.6525 27.8721 55.6525 27.7706 55.6525ZM21.4832 53.2186C21.3818 53.1172 21.2804 53.0158 21.2804 53.0158C21.179 52.9144 21.0776 52.9144 20.9762 52.813C20.9762 52.813 20.8748 52.813 20.8748 52.7116C20.5706 52.5087 20.2663 52.3059 20.1649 52.0017C20.1649 51.9003 20.2663 51.6975 20.4691 51.4947C20.5706 51.5961 20.672 51.6975 20.7734 51.9003C20.8748 52.0017 20.9762 52.1031 21.0776 52.2045C21.179 52.2045 21.2804 52.3059 21.2804 52.4073C21.2804 52.4073 21.2804 52.4073 21.3818 52.4073C21.3818 52.4073 21.3818 52.4073 21.4832 52.4073V53.2186Z" fill="white"/>
<path d="M24.75 53.5661C24.65 53.9661 24.45 54.2661 24.45 54.2661L20.65 53.6661L20.85 52.6661C20.85 52.6661 20.95 52.6661 20.95 52.7661C21.05 52.8661 21.15 52.8661 21.25 52.9661C21.35 52.9661 21.35 53.0661 21.45 53.1661V52.4661C21.45 52.4661 21.45 52.4661 21.35 52.4661C21.95 52.7661 22.75 52.9661 23.85 52.2661V53.4661C23.95 53.4661 24.05 53.5661 24.75 53.5661Z" fill="url(#paint2_linear)"/>
<path d="M23.9598 47.9886C24.6732 47.9886 25.3866 47.8866 25.9981 47.6828C25.9981 47.6828 25.9981 47.5809 26.1 47.479C25.9981 47.1732 25.8961 46.7656 25.6923 46.3579C25.0808 45.2368 23.8578 44.5234 22.5329 44.5234C22.2272 44.5234 21.9339 44.5452 21.525 44.6472C20.9808 44.8135 20.7281 44.9597 20.5992 45.0378C20.5992 45.0378 20.3013 45.2381 20.087 45.4407C19.8727 45.6432 19.3736 46.3579 19.1697 46.8675C18.9659 47.479 18.8015 47.9987 18.9034 48.6102C19.0053 48.6102 19.1697 48.4981 19.2717 48.4981C20.087 48.0905 20.6985 47.5809 21.0042 46.7656C21.8195 47.479 22.8387 47.8866 23.9598 47.9886Z" fill="#A2ABBC"/>
<path d="M20.5 51.6001C20.6 51.7001 20.7 51.8001 20.8 51.9001C20.7 51.8001 20.6 51.7001 20.5 51.6001Z" fill="#3973F4"/>
<path d="M21.9 55.3003C21.6 55.7003 21.1 55.7003 20.6 55.7003C21.1 55.2003 20.8 53.7003 19.2 53.9003C16.9 53.5003 17.2 51.1003 19.4 50.4003L19.8 50.3003C19.8 50.3003 19.8 50.3003 19.9 50.4003C20.1 50.9003 20.3 51.2003 20.6 51.6003C19.7 52.4003 21 52.6003 21.6 53.2003C22 53.4003 22.4 54.7003 21.9 55.3003Z" fill="#A2ABBC"/>
<defs>
<filter id="filter0_d" x="14.6" y="0.200195" width="111.404" height="44.2998" filterUnits="userSpaceOnUse" color-interpolation-filters="sRGB">
<feFlood flood-opacity="0" result="BackgroundImageFix"/>
<feColorMatrix in="SourceAlpha" type="matrix" values="0 0 0 0 0 0 0 0 0 0 0 0 0 0 0 0 0 0 127 0" result="hardAlpha"/>
<feOffset dy="5"/>
<feGaussianBlur stdDeviation="4.5"/>
<feColorMatrix type="matrix" values="0 0 0 0 0.397708 0 0 0 0 0.47749 0 0 0 0 0.575 0 0 0 0.17 0"/>
<feBlend mode="normal" in2="BackgroundImageFix" result="effect1_dropShadow"/>
<feBlend mode="normal" in="SourceGraphic" in2="effect1_dropShadow" result="shape"/>
</filter>
<filter id="filter1_d" x="14.6" y="65.7998" width="111.404" height="44.2998" filterUnits="userSpaceOnUse" color-interpolation-filters="sRGB">
<feFlood flood-opacity="0" result="BackgroundImageFix"/>
<feColorMatrix in="SourceAlpha" type="matrix" values="0 0 0 0 0 0 0 0 0 0 0 0 0 0 0 0 0 0 127 0" result="hardAlpha"/>
<feOffset dy="5"/>
<feGaussianBlur stdDeviation="4.5"/>
<feColorMatrix type="matrix" values="0 0 0 0 0.397708 0 0 0 0 0.47749 0 0 0 0 0.575 0 0 0 0.17 0"/>
<feBlend mode="normal" in2="BackgroundImageFix" result="effect1_dropShadow"/>
<feBlend mode="normal" in="SourceGraphic" in2="effect1_dropShadow" result="shape"/>
</filter>
<filter id="filter2_d" x="0" y="33" width="111.404" height="44.2998" filterUnits="userSpaceOnUse" color-interpolation-filters="sRGB">
<feFlood flood-opacity="0" result="BackgroundImageFix"/>
<feColorMatrix in="SourceAlpha" type="matrix" values="0 0 0 0 0 0 0 0 0 0 0 0 0 0 0 0 0 0 127 0" result="hardAlpha"/>
<feOffset dy="5"/>
<feGaussianBlur stdDeviation="4.5"/>
<feColorMatrix type="matrix" values="0 0 0 0 0.397708 0 0 0 0 0.47749 0 0 0 0 0.575 0 0 0 0.17 0"/>
<feBlend mode="normal" in2="BackgroundImageFix" result="effect1_dropShadow"/>
<feBlend mode="normal" in="SourceGraphic" in2="effect1_dropShadow" result="shape"/>
</filter>
<linearGradient id="paint0_linear" x1="37.1514" y1="22.1184" x2="37.1514" y2="20.4657" gradientUnits="userSpaceOnUse">
<stop stop-color="white"/>
<stop offset="1" stop-color="#E2E5EC"/>
</linearGradient>
<linearGradient id="paint1_linear" x1="37.1514" y1="87.718" x2="37.1514" y2="86.0653" gradientUnits="userSpaceOnUse">
<stop stop-color="white"/>
<stop offset="1" stop-color="#E2E5EC"/>
</linearGradient>
<linearGradient id="paint2_linear" x1="22.7012" y1="54.2783" x2="22.7012" y2="53.1765" gradientUnits="userSpaceOnUse">
<stop stop-color="white"/>
<stop offset="1" stop-color="#E2E5EC"/>
</linearGradient>
</defs>
</svg>
