<svg width="48" height="49" viewBox="0 0 48 49" fill="none" xmlns="http://www.w3.org/2000/svg">
<circle cx="24" cy="24.5" r="24" fill="#EBECFF"/>
<path d="M31 18.5H29C29 15.74 26.76 13.5 24 13.5C21.24 13.5 19 15.74 19 18.5H17C15.9 18.5 15 19.4 15 20.5V32.5C15 33.6 15.9 34.5 17 34.5H31C32.1 34.5 33 33.6 33 32.5V20.5C33 19.4 32.1 18.5 31 18.5ZM24 15.5C25.66 15.5 27 16.84 27 18.5H21C21 16.84 22.34 15.5 24 15.5ZM31 32.5H17V20.5H31V32.5ZM24 24.5C22.34 24.5 21 23.16 21 21.5H19C19 24.26 21.24 26.5 24 26.5C26.76 26.5 29 24.26 29 21.5H27C27 23.16 25.66 24.5 24 24.5Z" fill="#3C48FC"/>
</svg>
