<svg width="97" height="34" viewBox="0 0 97 34" fill="none" xmlns="http://www.w3.org/2000/svg">
<path d="M84.8294 22.3465C85.7175 22.3463 86.5966 22.523 87.4156 22.8664C88.2345 23.2098 88.9769 23.7129 89.5992 24.3464H95.4812V18.9991L90.0163 17.1062H79.0437C78.7998 17.1062 78.5658 17.0093 78.3933 16.8368C78.2209 16.6643 78.124 16.4304 78.124 16.1865V10.0371H74.9156V28.9664H78.124C78.1492 27.2038 78.8665 25.5217 80.121 24.2832C81.3755 23.0447 83.0666 22.3491 84.8294 22.3465Z" fill="#1E3448"/>
<path d="M79.9652 15.3202H87.0663L84.628 10.0371H79.9652V15.3202Z" fill="#1E3448"/>
<path d="M68.51 0.0703125H0.000789642V20.8391H68.51V0.0703125Z" fill="#1E3448"/>
<path d="M95.4615 26.2075H90.9056C91.1828 26.79 91.3737 27.4096 91.4724 28.047H93.6648C94.0335 28.0414 94.3973 27.9613 94.7343 27.8117C95.0839 27.6628 95.3992 27.4435 95.6604 27.1675C95.9217 26.8916 96.1234 26.5648 96.2529 26.2075H95.4615Z" fill="#1E3448"/>
<path d="M22.6501 22.7534H12.2443C13.5859 23.2281 14.7427 24.1154 15.549 25.288C16.2957 26.3713 16.7051 27.6514 16.7254 28.9669H18.1798C18.2001 27.6514 18.6094 26.3713 19.3562 25.288C20.1596 24.1171 21.3125 23.2301 22.6501 22.7534Z" fill="#1E3448"/>
<path d="M7.78669 22.7534H0.00107193V25.288H2.31109C2.17996 25.6314 2.09718 25.9913 2.06512 26.3575L1.82984 28.9776H3.30568C3.32597 27.6621 3.7353 26.382 4.48208 25.2987C5.28664 24.1221 6.44364 23.2309 7.78669 22.7534Z" fill="#1E3448"/>
<path d="M46.3522 22.7534H27.102C28.4436 23.2281 29.6004 24.1154 30.4067 25.288C31.1534 26.3713 31.5628 27.6514 31.583 28.9669H33.0589L32.8236 26.3468C32.7916 25.9806 32.7088 25.6207 32.5776 25.2773H40.8766C40.7455 25.6207 40.6627 25.9806 40.6306 26.3468L40.3953 28.9669H41.8712C41.8915 27.6514 42.3008 26.3713 43.0476 25.288C43.8538 24.1154 45.0106 23.2281 46.3522 22.7534Z" fill="#1E3448"/>
<path d="M61.2162 22.7534H50.8104C52.152 23.2281 53.3088 24.1154 54.115 25.288C54.8618 26.3713 55.2712 27.6514 55.2914 28.9669H56.7566C56.7769 27.6514 57.1862 26.3713 57.933 25.288C58.7336 24.1189 59.8825 23.232 61.2162 22.7534Z" fill="#1E3448"/>
<path d="M65.6769 22.7534C66.9645 23.21 68.0822 24.0483 68.8809 25.1566C69.6796 26.2649 70.1214 27.5904 70.1473 28.9562H73.0989V22.7534H65.6769Z" fill="#1E3448"/>
<path d="M82.4988 8.19846L74.0287 3.09717H71.2695V20.8394H73.109V9.07541C73.109 8.83148 73.2059 8.59755 73.3784 8.42506C73.5508 8.25258 73.7848 8.15568 74.0287 8.15568H82.4988V8.19846Z" fill="#1E3448"/>
<path d="M10.5881 24.23H9.44381C8.28397 24.3731 7.21409 24.928 6.42896 25.7936C5.64382 26.6592 5.19564 27.778 5.16599 28.9463C5.16599 28.9463 5.16599 29.0211 5.16599 29.0639C5.16599 29.7029 5.29186 30.3357 5.5364 30.9261C5.78094 31.5164 6.13937 32.0529 6.59122 32.5047C7.04307 32.9566 7.57949 33.315 8.16986 33.5595C8.76024 33.8041 9.39299 33.9299 10.032 33.9299C10.671 33.9299 11.3038 33.8041 11.8941 33.5595C12.4845 33.315 13.0209 32.9566 13.4728 32.5047C13.9246 32.0529 14.2831 31.5164 14.5276 30.9261C14.7722 30.3357 14.898 29.7029 14.898 29.0639C14.898 29.0639 14.898 28.989 14.898 28.9463C14.8673 27.7731 14.4146 26.6504 13.6229 25.7841C12.8313 24.9178 11.7538 24.366 10.5881 24.23ZM10.032 30.8071C9.80309 30.8071 9.57641 30.762 9.36491 30.6744C9.15341 30.5868 8.96124 30.4584 8.79937 30.2965C8.6375 30.1347 8.5091 29.9425 8.42149 29.731C8.33389 29.5195 8.2888 29.2928 8.2888 29.0639C8.2888 29.0639 8.2888 28.989 8.2888 28.9463C8.32313 28.5089 8.52112 28.1006 8.84324 27.8027C9.16537 27.5049 9.58795 27.3395 10.0267 27.3395C10.4654 27.3395 10.8879 27.5049 11.2101 27.8027C11.5322 28.1006 11.7302 28.5089 11.7645 28.9463C11.7645 28.9463 11.7645 29.0211 11.7645 29.0639C11.7645 29.5244 11.5823 29.9662 11.2577 30.2928C10.9331 30.6194 10.4925 30.8043 10.032 30.8071Z" fill="#1E3448"/>
<path d="M25.4546 24.23H24.3103C23.1505 24.3731 22.0806 24.928 21.2955 25.7936C20.5103 26.6592 20.0622 27.778 20.0325 28.9463C20.0325 28.9463 20.0325 29.0211 20.0325 29.0639C20.0325 30.3545 20.5452 31.5921 21.4577 32.5047C22.3703 33.4173 23.608 33.9299 24.8985 33.9299C26.1891 33.9299 27.4268 33.4173 28.3393 32.5047C29.2519 31.5921 29.7645 30.3545 29.7645 29.0639C29.7645 29.0639 29.7645 28.989 29.7645 28.9463C29.7338 27.7731 29.2811 26.6504 28.4895 25.7841C27.6978 24.9178 26.6203 24.366 25.4546 24.23ZM24.8985 30.8071C24.6696 30.8071 24.4429 30.762 24.2314 30.6744C24.0199 30.5868 23.8278 30.4584 23.6659 30.2965C23.504 30.1347 23.3756 29.9425 23.288 29.731C23.2004 29.5195 23.1553 29.2928 23.1553 29.0639C23.1553 29.0639 23.1553 28.989 23.1553 28.9463C23.1896 28.5089 23.3876 28.1006 23.7098 27.8027C24.0319 27.5049 24.4545 27.3395 24.8932 27.3395C25.3319 27.3395 25.7545 27.5049 26.0766 27.8027C26.3987 28.1006 26.5967 28.5089 26.631 28.9463C26.631 28.9463 26.631 29.0211 26.631 29.0639C26.631 29.5244 26.4489 29.9662 26.1242 30.2928C25.7996 30.6194 25.359 30.8043 24.8985 30.8071Z" fill="#1E3448"/>
<path d="M49.197 24.23H48.0099C46.85 24.3731 45.7802 24.928 44.995 25.7936C44.2099 26.6592 43.7617 27.778 43.7321 28.9463C43.7321 28.9463 43.7321 29.0211 43.7321 29.0639C43.7321 30.3545 44.2447 31.5921 45.1573 32.5047C46.0698 33.4173 47.3075 33.9299 48.5981 33.9299C49.8886 33.9299 51.1263 33.4173 52.0389 32.5047C52.9514 31.5921 53.4641 30.3545 53.4641 29.0639C53.4641 29.0639 53.4641 28.989 53.4641 28.9463C53.4348 27.7796 52.9881 26.6622 52.2052 25.7968C51.4222 24.9314 50.3549 24.3755 49.197 24.23ZM48.6409 30.8071C48.4119 30.8071 48.1853 30.762 47.9738 30.6744C47.7623 30.5868 47.5701 30.4584 47.4082 30.2965C47.2464 30.1347 47.118 29.9425 47.0303 29.731C46.9427 29.5195 46.8977 29.2928 46.8977 29.0639C46.8977 29.0639 46.8977 28.989 46.8977 28.9463C46.932 28.5089 47.13 28.1006 47.4521 27.8027C47.7742 27.5049 48.1968 27.3395 48.6355 27.3395C49.0742 27.3395 49.4968 27.5049 49.8189 27.8027C50.1411 28.1006 50.339 28.5089 50.3734 28.9463C50.3734 28.9463 50.3734 29.0211 50.3734 29.0639C50.3734 29.2956 50.3273 29.5249 50.2377 29.7385C50.1481 29.9521 50.0168 30.1457 49.8515 30.308C49.6862 30.4703 49.4903 30.5981 49.275 30.6837C49.0598 30.7694 48.8297 30.8114 48.5981 30.8071H48.6409Z" fill="#1E3448"/>
<path d="M64.02 24.23H62.8757C61.7158 24.3731 60.646 24.928 59.8608 25.7936C59.0757 26.6592 58.6275 27.778 58.5979 28.9463C58.5979 28.9463 58.5979 29.0211 58.5979 29.0639C58.5979 30.3545 59.1105 31.5921 60.0231 32.5047C60.9356 33.4173 62.1733 33.9299 63.4639 33.9299C64.7544 33.9299 65.9921 33.4173 66.9047 32.5047C67.8172 31.5921 68.3299 30.3545 68.3299 29.0639C68.3299 29.0639 68.3299 28.989 68.3299 28.9463C68.2992 27.7731 67.8465 26.6504 67.0548 25.7841C66.2631 24.9178 65.1856 24.366 64.02 24.23ZM63.4639 30.8071C63.2349 30.8071 63.0083 30.762 62.7968 30.6744C62.5853 30.5868 62.3931 30.4584 62.2312 30.2965C62.0694 30.1347 61.941 29.9425 61.8534 29.731C61.7657 29.5195 61.7207 29.2928 61.7207 29.0639C61.7207 29.0639 61.7207 28.989 61.7207 28.9463C61.755 28.5089 61.953 28.1006 62.2751 27.8027C62.5972 27.5049 63.0198 27.3395 63.4585 27.3395C63.8972 27.3395 64.3198 27.5049 64.6419 27.8027C64.9641 28.1006 65.162 28.5089 65.1964 28.9463C65.1964 28.9463 65.1964 29.0211 65.1964 29.0639C65.1964 29.5244 65.0142 29.9662 64.6896 30.2928C64.365 30.6194 63.9243 30.8043 63.4639 30.8071Z" fill="#1E3448"/>
<path d="M85.3307 24.23H84.1864C83.0266 24.3731 81.9567 24.928 81.1715 25.7936C80.3864 26.6592 79.9382 27.778 79.9086 28.9463C79.9086 28.9463 79.9086 29.0211 79.9086 29.0639C79.9086 30.3545 80.4213 31.5921 81.3338 32.5047C82.2464 33.4173 83.484 33.9299 84.7746 33.9299C86.0651 33.9299 87.3028 33.4173 88.2154 32.5047C89.1279 31.5921 89.6406 30.3545 89.6406 29.0639C89.6406 29.0639 89.6406 28.989 89.6406 28.9463C89.6099 27.7731 89.1572 26.6504 88.3655 25.7841C87.5739 24.9178 86.4964 24.366 85.3307 24.23ZM84.7746 30.8071C84.5457 30.8071 84.319 30.762 84.1075 30.6744C83.896 30.5868 83.7038 30.4584 83.542 30.2965C83.3801 30.1347 83.2517 29.9425 83.1641 29.731C83.0765 29.5195 83.0314 29.2928 83.0314 29.0639C83.0314 29.0639 83.0314 28.989 83.0314 28.9463C83.0657 28.5089 83.2637 28.1006 83.5858 27.8027C83.908 27.5049 84.3305 27.3395 84.7692 27.3395C85.208 27.3395 85.6305 27.5049 85.9527 27.8027C86.2748 28.1006 86.4728 28.5089 86.5071 28.9463C86.5071 28.9463 86.5071 29.0211 86.5071 29.0639C86.5071 29.2928 86.462 29.5195 86.3744 29.731C86.2868 29.9425 86.1584 30.1347 85.9965 30.2965C85.8347 30.4584 85.6425 30.5868 85.431 30.6744C85.2195 30.762 84.9928 30.8071 84.7639 30.8071H84.7746Z" fill="#1E3448"/>
</svg>
