<svg width="60" height="33" viewBox="0 0 60 33" fill="none" xmlns="http://www.w3.org/2000/svg">
<g clip-path="url(#clip0)">
<path d="M56.2572 3.63327C55.8531 3.23192 55.6511 2.72495 55.6511 2.11237C55.6511 1.49978 55.8531 0.992812 56.2572 0.591463C56.6612 0.200675 57.1928 0 57.8414 0C58.4794 0 59.0004 0.200675 59.3938 0.602024C59.7978 1.00337 59.9999 1.51034 59.9999 2.12293C59.9999 2.73551 59.7978 3.24248 59.3938 3.64383C58.9898 4.04518 58.4688 4.24586 57.8414 4.24586C57.1928 4.23529 56.6612 4.03462 56.2572 3.63327Z" fill="#030EAA"/>
<path d="M59.5533 6.60156H56.1296V20.7861H59.5533V6.60156Z" fill="#030EAA"/>
<path d="M46.3477 5.15401C44.0298 4.93221 41.8926 5.71379 40.2977 7.08682V0.390625H36.874V20.7855H40.2446V19.0534V18.5253C40.2446 18.5253 40.2446 18.5358 40.2552 18.5358C40.6486 19.3174 41.3291 19.9194 42.1266 20.2891C43.1686 20.7855 44.3381 21.0707 45.5822 21.0707C45.9543 21.0707 46.3158 21.039 46.6773 20.9862C50.8134 20.4264 53.95 16.7509 53.5885 12.4205C53.2696 8.62885 50.1755 5.51311 46.3477 5.15401ZM45.5715 17.9444C45.4971 17.9444 45.4227 17.9338 45.3589 17.9338C42.7645 17.8176 40.7018 15.7053 40.7018 13.0965C40.7018 11.9136 41.1271 10.8363 41.8288 10.0019C42.8815 8.75559 44.5402 8.03739 46.3583 8.32256C48.4849 8.64998 50.1648 10.4032 50.4094 12.5262C50.7603 15.4518 48.453 17.9444 45.5715 17.9444Z" fill="#030EAA"/>
<path d="M25.3588 5.15356C27.6767 4.93176 29.8139 5.71334 31.4088 7.08637V5.79783H34.8325V20.7851H31.4619V19.0529V18.5248C31.4619 18.5248 31.4619 18.5354 31.4513 18.5354C31.0579 19.317 30.3774 19.919 29.58 20.2887C28.538 20.7851 27.3684 21.0702 26.1244 21.0702C25.7522 21.0702 25.3907 21.0385 25.0292 20.9857C20.8931 20.426 17.7565 16.7504 18.118 12.4201C18.4263 8.6284 21.5204 5.51266 25.3588 5.15356ZM26.1244 17.9439C26.1988 17.9439 26.2732 17.9334 26.337 17.9334C28.9314 17.8172 30.9941 15.7048 30.9941 13.0961C30.9941 11.9131 30.5688 10.8358 29.867 10.0014C28.8144 8.75514 27.1557 8.03694 25.3375 8.32211C23.211 8.64952 21.5311 10.4028 21.2865 12.5257C20.9356 15.4513 23.2429 17.9439 26.1244 17.9439Z" fill="#030EAA"/>
<path d="M13.9395 11.1855C14.0245 11.2489 14.1096 11.3123 14.184 11.3757C14.1096 11.3123 14.0245 11.2489 13.9395 11.1855Z" fill="#030EAA"/>
<path d="M13.0569 10.625C13.1526 10.6778 13.2376 10.7201 13.3333 10.7729C13.2376 10.7306 13.1419 10.6778 13.0569 10.625Z" fill="#030EAA"/>
<path d="M14.5772 11.7552C14.5666 11.7447 14.556 11.7235 14.5453 11.713C14.5241 11.6918 14.5135 11.6813 14.4922 11.6602C14.5135 11.6813 14.5347 11.6918 14.5453 11.713C14.556 11.7235 14.5666 11.7341 14.5772 11.7552Z" fill="#030EAA"/>
<path d="M13.5034 10.8896C13.5991 10.953 13.6948 11.0058 13.7905 11.0692C13.6948 11.0058 13.5991 10.9425 13.5034 10.8896Z" fill="#030EAA"/>
<path d="M14.5774 11.755C14.5667 11.7445 14.5561 11.7339 14.5455 11.7128C14.5242 11.6917 14.5136 11.6811 14.4923 11.66C14.3966 11.5649 14.3009 11.4699 14.1839 11.3748C14.1095 11.3114 14.0245 11.2481 13.9394 11.1847C13.8862 11.1424 13.8437 11.1108 13.7905 11.0685C13.7055 11.0051 13.5991 10.9418 13.5035 10.889C13.4397 10.8573 13.3865 10.815 13.3227 10.7833C13.2376 10.7305 13.1419 10.6883 13.0463 10.6355C12.9612 10.5932 12.8868 10.551 12.8017 10.5087C12.1318 10.1813 11.3557 9.91726 10.4625 9.69547L7.24083 8.94558C6.11377 8.68153 5.32695 8.36468 4.86975 7.97389C4.41255 7.5831 4.17863 7.09726 4.17863 6.52692C4.17863 5.76646 4.49761 5.16444 5.13557 4.73141C5.77352 4.29837 6.6773 4.07657 7.85752 4.07657C8.94205 4.07657 9.90962 4.26669 10.7496 4.64691C11.5045 4.98489 12.1318 5.47073 12.6422 6.10444C13.1738 5.10107 13.8012 4.17163 14.5455 3.30556C14.0138 2.73522 13.344 2.25994 12.5253 1.85859C11.2068 1.21432 9.66507 0.897461 7.91069 0.897461C6.41148 0.897461 5.1143 1.14038 3.99787 1.62623C2.88145 2.11207 2.03083 2.77747 1.44604 3.63298C0.861244 4.48848 0.56353 5.47073 0.56353 6.59029C0.56353 7.96333 1.03137 9.11456 1.95641 10.0334C2.88145 10.9523 4.26369 11.6283 6.0925 12.0508L9.26103 12.8006C10.3243 13.0647 11.0898 13.3921 11.547 13.7935C12.0043 14.1948 12.2382 14.7123 12.2382 15.3355C12.2382 16.1487 11.8979 16.8036 11.2281 17.2894C10.5582 17.7753 9.60128 18.0182 8.36789 18.0182C7.09197 18.0182 5.96491 17.7541 4.95481 17.2261C3.95534 16.698 3.16853 15.9375 2.58373 14.9553L0 16.7719C0.659224 18.1449 1.70122 19.2222 3.14726 20.0038C4.58267 20.7854 6.29452 21.1762 8.25093 21.1762C9.84583 21.1762 11.2068 20.9227 12.3445 20.4263C13.4822 19.9299 14.3541 19.2222 14.9495 18.3034C15.5449 17.395 15.8426 16.3389 15.8426 15.1559C15.8426 13.9519 15.513 12.9379 14.8751 12.1036L14.7156 11.9135C14.673 11.8501 14.6305 11.7973 14.5774 11.755Z" fill="#030EAA"/>
<path d="M13.3228 10.7725C13.3865 10.8041 13.4397 10.8464 13.5035 10.8781C13.4397 10.8464 13.3865 10.8147 13.3228 10.7725Z" fill="#030EAA"/>
<path d="M12.8123 10.498C12.8973 10.5403 12.9824 10.5825 13.0568 10.6248C12.9717 10.5825 12.8973 10.5403 12.8123 10.498Z" fill="#030EAA"/>
<path d="M14.7156 11.9026L14.8751 12.0927C14.7794 11.9765 14.6837 11.8603 14.5774 11.7441C14.6306 11.7969 14.6731 11.8498 14.7156 11.9026Z" fill="#030EAA"/>
<path d="M13.7905 11.0684C13.8437 11.1106 13.8969 11.1423 13.9394 11.1845C13.8862 11.1423 13.8437 11.1106 13.7905 11.0684Z" fill="#030EAA"/>
<path d="M14.1841 11.375C14.2904 11.4701 14.3861 11.5651 14.4924 11.6602C14.3967 11.5651 14.301 11.4701 14.1841 11.375Z" fill="#030EAA"/>
<path d="M20.3084 1.2041C19.0962 1.79556 17.9905 2.55602 17.0123 3.46433C15.6832 4.71063 14.6093 6.22097 13.8756 7.91087C13.7587 8.18547 13.6523 8.46008 13.5566 8.74525C14.5136 9.19941 15.3004 9.73806 15.9277 10.3929C16.034 10.4985 16.1297 10.6147 16.2254 10.7309C16.9378 7.77356 19.0006 5.29153 21.7119 3.98186L20.3084 1.2041Z" fill="#FF7F36"/>
</g>
<path d="M0.600596 30.5293V26.4116H1.35354V29.9411H3.17707V30.5293H0.600596ZM9.10239 30.5999C8.69062 30.5999 8.32984 30.5097 8.02004 30.3293C7.71415 30.1489 7.47298 29.8999 7.29651 29.5822C7.12396 29.2607 7.03768 28.8901 7.03768 28.4705C7.03768 28.0509 7.12396 27.6822 7.29651 27.3646C7.47298 27.043 7.71415 26.792 8.02004 26.6116C8.32984 26.4313 8.69062 26.3411 9.10239 26.3411C9.51023 26.3411 9.86906 26.4313 10.1789 26.6116C10.4887 26.792 10.7298 27.043 10.9024 27.3646C11.0749 27.6822 11.1612 28.0509 11.1612 28.4705C11.1612 28.8901 11.0749 29.2607 10.9024 29.5822C10.7298 29.8999 10.4887 30.1489 10.1789 30.3293C9.86906 30.5097 9.51023 30.5999 9.10239 30.5999ZM9.10239 29.9234C9.49455 29.9234 9.80631 29.794 10.0377 29.5352C10.273 29.2764 10.3906 28.9215 10.3906 28.4705C10.3906 28.0195 10.273 27.6646 10.0377 27.4058C9.80631 27.1469 9.49455 27.0175 9.10239 27.0175C8.71023 27.0175 8.39651 27.1469 8.16121 27.4058C7.92592 27.6646 7.80827 28.0195 7.80827 28.4705C7.80827 28.9215 7.92592 29.2764 8.16121 29.5352C8.39651 29.794 8.71023 29.9234 9.10239 29.9234ZM17.3319 30.5999C16.9437 30.5999 16.6044 30.5116 16.3142 30.3352C16.024 30.1587 15.7986 29.9136 15.6378 29.5999C15.477 29.2822 15.3966 28.9136 15.3966 28.494C15.3966 28.0705 15.479 27.6979 15.6437 27.3764C15.8123 27.0509 16.0495 26.7979 16.3554 26.6175C16.6652 26.4332 17.0319 26.3411 17.4554 26.3411C17.9378 26.3411 18.3378 26.4567 18.6554 26.6881C18.9731 26.9195 19.179 27.2391 19.2731 27.6469H18.4319C18.3691 27.4548 18.2554 27.3058 18.0907 27.1999C17.926 27.0901 17.7142 27.0352 17.4554 27.0352C17.0437 27.0352 16.726 27.1666 16.5025 27.4293C16.279 27.6881 16.1672 28.045 16.1672 28.4999C16.1672 28.9548 16.277 29.3077 16.4966 29.5587C16.7201 29.8058 17.0221 29.9293 17.4025 29.9293C17.775 29.9293 18.0554 29.8293 18.2437 29.6293C18.4358 29.4254 18.5515 29.1587 18.5907 28.8293H17.5495V28.2646H19.3495V30.5293H18.6554L18.5966 29.9881C18.4633 30.1842 18.2966 30.3352 18.0966 30.4411C17.8966 30.5469 17.6417 30.5999 17.3319 30.5999ZM23.7874 30.5293V26.4116H24.5403V30.5293H23.7874ZM30.4502 30.5999C30.1482 30.5999 29.8816 30.5489 29.6502 30.4469C29.4188 30.3411 29.2365 30.192 29.1031 29.9999C28.9698 29.8038 28.9012 29.5666 28.8972 29.2881H29.6914C29.6992 29.4803 29.7678 29.643 29.8972 29.7764C30.0306 29.9058 30.2129 29.9705 30.4443 29.9705C30.6443 29.9705 30.8031 29.9234 30.9208 29.8293C31.0384 29.7313 31.0972 29.6018 31.0972 29.4411C31.0972 29.2724 31.0443 29.1411 30.9384 29.0469C30.8365 28.9528 30.6992 28.8764 30.5267 28.8175C30.3541 28.7587 30.1698 28.696 29.9737 28.6293C29.6561 28.5195 29.4129 28.3783 29.2443 28.2058C29.0796 28.0332 28.9972 27.8038 28.9972 27.5175C28.9933 27.2744 29.0502 27.0666 29.1678 26.894C29.2894 26.7175 29.4541 26.5822 29.6619 26.4881C29.8698 26.3901 30.109 26.3411 30.3796 26.3411C30.6541 26.3411 30.8953 26.3901 31.1031 26.4881C31.3149 26.5862 31.4796 26.7234 31.5972 26.8999C31.7188 27.0764 31.7835 27.2862 31.7914 27.5293H30.9855C30.9816 27.3842 30.9247 27.2567 30.8149 27.1469C30.709 27.0332 30.56 26.9764 30.3678 26.9764C30.2031 26.9724 30.0639 27.0136 29.9502 27.0999C29.8404 27.1822 29.7855 27.3038 29.7855 27.4646C29.7855 27.6018 29.8286 27.7116 29.9149 27.794C30.0012 27.8724 30.1188 27.9391 30.2678 27.994C30.4168 28.0489 30.5874 28.1077 30.7796 28.1705C30.9835 28.2411 31.1698 28.3234 31.3384 28.4175C31.507 28.5116 31.6423 28.6371 31.7443 28.794C31.8463 28.9469 31.8972 29.145 31.8972 29.3881C31.8972 29.6038 31.8423 29.8038 31.7325 29.9881C31.6227 30.1724 31.46 30.3215 31.2443 30.4352C31.0286 30.545 30.7639 30.5999 30.4502 30.5999ZM37.1672 30.5293V27.0175H35.9672V26.4116H39.126V27.0175H37.9201V30.5293H37.1672ZM43.3897 30.5293V26.4116H44.1426V30.5293H43.3897ZM50.5113 30.5999C50.0956 30.5999 49.7387 30.5116 49.4407 30.3352C49.1426 30.1548 48.9132 29.9058 48.7524 29.5881C48.5917 29.2666 48.5113 28.896 48.5113 28.4764C48.5113 28.0567 48.5917 27.6862 48.7524 27.3646C48.9132 27.043 49.1426 26.792 49.4407 26.6116C49.7387 26.4313 50.0956 26.3411 50.5113 26.3411C51.0054 26.3411 51.4093 26.4646 51.723 26.7116C52.0407 26.9548 52.2387 27.2979 52.3171 27.7411H51.4877C51.4368 27.5175 51.3269 27.343 51.1583 27.2175C50.9936 27.0881 50.774 27.0234 50.4995 27.0234C50.1191 27.0234 49.8211 27.1528 49.6054 27.4116C49.3897 27.6705 49.2818 28.0254 49.2818 28.4764C49.2818 28.9273 49.3897 29.2822 49.6054 29.5411C49.8211 29.796 50.1191 29.9234 50.4995 29.9234C50.774 29.9234 50.9936 29.8646 51.1583 29.7469C51.3269 29.6254 51.4368 29.4587 51.4877 29.2469H52.3171C52.2387 29.6705 52.0407 30.0018 51.723 30.2411C51.4093 30.4803 51.0054 30.5999 50.5113 30.5999ZM58.0954 30.5999C57.7934 30.5999 57.5268 30.5489 57.2954 30.4469C57.064 30.3411 56.8817 30.192 56.7483 29.9999C56.615 29.8038 56.5464 29.5666 56.5425 29.2881H57.3366C57.3444 29.4803 57.4131 29.643 57.5425 29.7764C57.6758 29.9058 57.8582 29.9705 58.0895 29.9705C58.2895 29.9705 58.4483 29.9234 58.566 29.8293C58.6836 29.7313 58.7425 29.6018 58.7425 29.4411C58.7425 29.2724 58.6895 29.1411 58.5836 29.0469C58.4817 28.9528 58.3444 28.8764 58.1719 28.8175C57.9993 28.7587 57.815 28.696 57.6189 28.6293C57.3013 28.5195 57.0582 28.3783 56.8895 28.2058C56.7248 28.0332 56.6425 27.8038 56.6425 27.5175C56.6385 27.2744 56.6954 27.0666 56.8131 26.894C56.9346 26.7175 57.0993 26.5822 57.3072 26.4881C57.515 26.3901 57.7542 26.3411 58.0248 26.3411C58.2993 26.3411 58.5405 26.3901 58.7483 26.4881C58.9601 26.5862 59.1248 26.7234 59.2425 26.8999C59.364 27.0764 59.4287 27.2862 59.4366 27.5293H58.6307C58.6268 27.3842 58.5699 27.2567 58.4601 27.1469C58.3542 27.0332 58.2052 26.9764 58.0131 26.9764C57.8483 26.9724 57.7091 27.0136 57.5954 27.0999C57.4856 27.1822 57.4307 27.3038 57.4307 27.4646C57.4307 27.6018 57.4738 27.7116 57.5601 27.794C57.6464 27.8724 57.764 27.9391 57.9131 27.994C58.0621 28.0489 58.2327 28.1077 58.4248 28.1705C58.6287 28.2411 58.815 28.3234 58.9836 28.4175C59.1523 28.5116 59.2876 28.6371 59.3895 28.794C59.4915 28.9469 59.5425 29.145 59.5425 29.3881C59.5425 29.6038 59.4876 29.8038 59.3778 29.9881C59.268 30.1724 59.1052 30.3215 58.8895 30.4352C58.6738 30.545 58.4091 30.5999 58.0954 30.5999Z" fill="#071827"/>
<defs>
<clipPath id="clip0">
<rect width="60" height="21.1765" fill="white"/>
</clipPath>
</defs>
</svg>
