<svg width="8" height="8" viewBox="0 0 8 8" fill="none" xmlns="http://www.w3.org/2000/svg">
<path d="M3.246 7.08784C3.20733 7.05017 3.042 6.90794 2.906 6.77545C2.05067 5.9987 0.650667 3.9724 0.223334 2.91184C0.154667 2.75077 0.00933357 2.34356 4.55297e-07 2.126C4.73522e-07 1.91752 0.0480003 1.71879 0.145334 1.52915C0.281334 1.29274 0.495333 1.1031 0.748 0.99919C0.923334 0.932296 1.448 0.828383 1.45733 0.828383C2.03133 0.72447 2.964 0.667318 3.99467 0.667318C4.97667 0.667318 5.87133 0.72447 6.454 0.809549C6.46333 0.819291 7.11533 0.923204 7.33867 1.03686C7.74667 1.24533 8 1.65254 8 2.08833L8 2.126C7.99 2.40981 7.73667 3.00666 7.72733 3.00666C7.29933 4.01007 5.968 5.98961 5.08333 6.78519C5.08333 6.78519 4.856 7.00926 4.714 7.10667C4.51 7.25865 4.25733 7.33398 4.00467 7.33398C3.72267 7.33398 3.46 7.24891 3.246 7.08784Z" fill="#E02020"/>
</svg>
