<svg width="200" height="200" viewBox="0 0 200 200" fill="none" xmlns="http://www.w3.org/2000/svg">
<path d="M96.2898 159.406C124.29 159.406 146.99 136.706 146.99 108.606C146.99 80.5062 124.19 57.8062 96.2898 57.8062C68.2898 57.8062 45.5898 80.5062 45.5898 108.606C45.5898 136.706 68.2898 159.406 96.2898 159.406Z" fill="#EAEEF9"/>
<path d="M143.69 75.306C145.954 75.306 147.79 73.4703 147.79 71.206C147.79 68.9416 145.954 67.106 143.69 67.106C141.425 67.106 139.59 68.9416 139.59 71.206C139.59 73.4703 141.425 75.306 143.69 75.306Z" fill="#EAEEF9"/>
<path d="M149.691 59.3061C151.237 59.3061 152.491 58.0525 152.491 56.5061C152.491 54.9597 151.237 53.7061 149.691 53.7061C148.144 53.7061 146.891 54.9597 146.891 56.5061C146.891 58.0525 148.144 59.3061 149.691 59.3061Z" fill="#EAEEF9"/>
<path d="M48.2902 75.206C49.8366 75.206 51.0902 73.9524 51.0902 72.406C51.0902 70.8596 49.8366 69.606 48.2902 69.606C46.7438 69.606 45.4902 70.8596 45.4902 72.406C45.4902 73.9524 46.7438 75.206 48.2902 75.206Z" fill="#EAEEF9"/>
<path d="M31.1902 129.206C34.0621 129.206 36.3902 126.878 36.3902 124.006C36.3902 121.134 34.0621 118.806 31.1902 118.806C28.3184 118.806 25.9902 121.134 25.9902 124.006C25.9902 126.878 28.3184 129.206 31.1902 129.206Z" fill="#EAEEF9"/>
<path d="M173.559 92.6565H168.598V87.6953H164.346V92.6565H159.385V97.0506H164.346V102.012H168.598V97.0506H173.559V92.6565Z" fill="url(#paint0_linear_5317_38952)"/>
<path d="M91.4591 45.7088H87.218V41.4678H83.5828V45.7088H79.3418V49.4652H83.5828V53.7062H87.218V49.4652H91.4591V45.7088Z" fill="url(#paint1_linear_5317_38952)"/>
<path d="M41.5424 88.0205H37.9189V84.397H34.813V88.0205H31.1895V91.2299H34.813V94.8535H37.9189V91.2299H41.5424V88.0205Z" fill="url(#paint2_linear_5317_38952)"/>
<g filter="url(#filter0_d_5317_38952)">
<path d="M131.953 98.8097L121.94 74.3581C120.155 70.0112 115.497 67.5272 110.917 68.5363L85.0686 74.1252C82.8951 74.591 81.0322 76.0658 79.9454 78.0064L55.3386 124.891C54.3295 126.832 55.0281 129.316 57.0464 130.325L101.603 153.767C103.543 154.777 106.027 154.078 107.036 152.06L131.643 105.175C132.73 103.234 132.807 100.906 131.953 98.8097ZM107.191 88.9514C104.009 87.3213 102.767 83.3625 104.475 80.1799C106.105 76.9973 110.064 75.7553 113.246 77.4631C116.429 79.0932 117.671 83.052 115.963 86.2346C114.333 89.4172 110.374 90.6591 107.191 88.9514Z" fill="url(#paint3_linear_5317_38952)"/>
</g>
<path d="M110.374 82.9744C130.634 72.4951 138.629 56.8927 128.072 50.1394C117.515 43.3862 107.114 50.1394 104.475 69.7783" stroke="#ADB6C8" stroke-width="5" stroke-miterlimit="10" stroke-linecap="round" stroke-linejoin="round"/>
<path d="M105.087 116.802C106.457 117.561 108.282 117.037 109.041 115.666C109.8 114.296 109.275 112.47 107.905 111.712C106.534 110.953 104.709 111.477 103.95 112.848C103.137 114.317 103.618 115.99 105.087 116.802Z" fill="#AAB2C5"/>
<path d="M97.2765 120.383L96.0038 119.678C96.2276 116.733 93.8763 114.28 90.9744 114.208C89.8765 114.112 88.6598 114.462 87.7805 115.126L86.5078 114.422C89.2646 111.983 93.656 112.367 95.9426 115.168C96.988 116.514 97.6104 118.393 97.2765 120.383Z" fill="#AAB2C5"/>
<path d="M85.5085 105.964C86.8791 106.722 88.7042 106.198 89.4629 104.827C90.2216 103.457 89.6971 101.632 88.3266 100.873C86.956 100.114 85.1309 100.639 84.3722 102.009C83.6572 103.532 84.138 105.205 85.5085 105.964Z" fill="#AAB2C5"/>
<defs>
<filter id="filter0_d_5317_38952" x="32.8809" y="57.3125" width="121.652" height="129.913" filterUnits="userSpaceOnUse" color-interpolation-filters="sRGB">
<feFlood flood-opacity="0" result="BackgroundImageFix"/>
<feColorMatrix in="SourceAlpha" type="matrix" values="0 0 0 0 0 0 0 0 0 0 0 0 0 0 0 0 0 0 127 0" result="hardAlpha"/>
<feOffset dy="11"/>
<feGaussianBlur stdDeviation="11"/>
<feColorMatrix type="matrix" values="0 0 0 0 0.397708 0 0 0 0 0.47749 0 0 0 0 0.575 0 0 0 0.27 0"/>
<feBlend mode="normal" in2="BackgroundImageFix" result="effect1_dropShadow_5317_38952"/>
<feBlend mode="normal" in="SourceGraphic" in2="effect1_dropShadow_5317_38952" result="shape"/>
</filter>
<linearGradient id="paint0_linear_5317_38952" x1="166.473" y1="88.1926" x2="166.473" y2="96.2283" gradientUnits="userSpaceOnUse">
<stop stop-color="#B0BACC"/>
<stop offset="1" stop-color="#969EAE"/>
</linearGradient>
<linearGradient id="paint1_linear_5317_38952" x1="85.4014" y1="41.8929" x2="85.4014" y2="48.7622" gradientUnits="userSpaceOnUse">
<stop stop-color="#B0BACC"/>
<stop offset="1" stop-color="#969EAE"/>
</linearGradient>
<linearGradient id="paint2_linear_5317_38952" x1="36.3668" y1="84.7602" x2="36.3668" y2="90.6293" gradientUnits="userSpaceOnUse">
<stop stop-color="#B0BACC"/>
<stop offset="1" stop-color="#969EAE"/>
</linearGradient>
<linearGradient id="paint3_linear_5317_38952" x1="93.6817" y1="66.3253" x2="93.6817" y2="155.151" gradientUnits="userSpaceOnUse">
<stop stop-color="#FDFEFF"/>
<stop offset="0.9964" stop-color="#ECF0F5"/>
</linearGradient>
</defs>
</svg>
