<svg width="48" height="49" viewBox="0 0 48 49" fill="none" xmlns="http://www.w3.org/2000/svg">
<circle cx="24" cy="24.5" r="24" fill="#E9F2FF"/>
<path d="M32 20.5H29V16.5H15C13.9 16.5 13 17.4 13 18.5V29.5H15C15 31.16 16.34 32.5 18 32.5C19.66 32.5 21 31.16 21 29.5H27C27 31.16 28.34 32.5 30 32.5C31.66 32.5 33 31.16 33 29.5H35V24.5L32 20.5ZM31.5 22L33.46 24.5H29V22H31.5ZM18 30.5C17.45 30.5 17 30.05 17 29.5C17 28.95 17.45 28.5 18 28.5C18.55 28.5 19 28.95 19 29.5C19 30.05 18.55 30.5 18 30.5ZM20.22 27.5C19.67 26.89 18.89 26.5 18 26.5C17.11 26.5 16.33 26.89 15.78 27.5H15V18.5H27V27.5H20.22ZM30 30.5C29.45 30.5 29 30.05 29 29.5C29 28.95 29.45 28.5 30 28.5C30.55 28.5 31 28.95 31 29.5C31 30.05 30.55 30.5 30 30.5Z" fill="#0064F0"/>
</svg>
