<svg width="71" height="25" viewBox="0 0 71 25" fill="none" xmlns="http://www.w3.org/2000/svg">
<path d="M66.2054 4.27575C65.7299 3.80343 65.4922 3.20681 65.4922 2.4859C65.4922 1.76499 65.7299 1.16837 66.2054 0.696053C66.6809 0.236161 67.3065 0 68.0698 0C68.8206 0 69.4337 0.236161 69.8967 0.708482C70.3722 1.1808 70.6099 1.77742 70.6099 2.49833C70.6099 3.21924 70.3722 3.81586 69.8967 4.28818C69.4212 4.7605 68.8081 4.99666 68.0698 4.99666C67.3065 4.98424 66.6809 4.74807 66.2054 4.27575Z" fill="#02075C"/>
<path d="M70.0846 7.76855H66.0554V24.4614H70.0846V7.76855Z" fill="#02075C"/>
<path d="M54.5435 6.06567C51.8157 5.80465 49.3006 6.72444 47.4237 8.34027V0.459961H43.3945V24.4614H47.3611V22.4229V21.8014C47.3611 21.8014 47.3611 21.8139 47.3736 21.8139C47.8366 22.7337 48.6374 23.4421 49.5759 23.8772C50.8021 24.4614 52.1786 24.797 53.6426 24.797C54.0805 24.797 54.5059 24.7597 54.9314 24.6975C59.7989 24.0387 63.4902 19.7133 63.0647 14.6172C62.6893 10.155 59.0481 6.48828 54.5435 6.06567ZM53.63 21.1178C53.5425 21.1178 53.4549 21.1054 53.3798 21.1054C50.3267 20.9687 47.8992 18.4828 47.8992 15.4127C47.8992 14.0206 48.3997 12.7528 49.2255 11.7708C50.4643 10.3041 52.4163 9.45893 54.556 9.79453C57.0586 10.1798 59.0356 12.2431 59.3234 14.7415C59.7363 18.1844 57.021 21.1178 53.63 21.1178Z" fill="#02075C"/>
<path d="M29.8432 6.06544C32.571 5.80442 35.0861 6.7242 36.963 8.34004V6.82364H40.9922V24.4611H37.0256V22.4227V21.8012C37.0256 21.8012 37.0256 21.8136 37.0131 21.8136C36.5501 22.7334 35.7493 23.4419 34.8108 23.8769C33.5846 24.4611 32.2081 24.7967 30.7441 24.7967C30.3062 24.7967 29.8808 24.7594 29.4553 24.6973C24.5878 24.0385 20.8965 19.713 21.322 14.6169C21.6848 10.1547 25.3261 6.48804 29.8432 6.06544ZM30.7441 21.1176C30.8317 21.1176 30.9193 21.1051 30.9944 21.1051C34.0475 20.9684 36.475 18.4825 36.475 15.4124C36.475 14.0203 35.9745 12.7525 35.1487 11.7706C33.9099 10.3039 31.9579 9.45869 29.8182 9.79429C27.3156 10.1796 25.3386 12.2429 25.0508 14.7412C24.6379 18.1842 27.3532 21.1176 30.7441 21.1176Z" fill="#02075C"/>
<path d="M16.4043 13.1631C16.5044 13.2377 16.6045 13.3122 16.6921 13.3868C16.6045 13.3122 16.5044 13.2377 16.4043 13.1631Z" fill="#02075C"/>
<path d="M15.3655 12.5044C15.4781 12.5665 15.5782 12.6163 15.6908 12.6784C15.5782 12.6287 15.4656 12.5665 15.3655 12.5044Z" fill="#02075C"/>
<path d="M17.1553 13.834C17.1428 13.8216 17.1303 13.7967 17.1177 13.7843C17.0927 13.7595 17.0802 13.747 17.0552 13.7222C17.0802 13.747 17.1052 13.7595 17.1177 13.7843C17.1303 13.7967 17.1428 13.8092 17.1553 13.834Z" fill="#02075C"/>
<path d="M15.8911 12.8149C16.0037 12.8895 16.1163 12.9517 16.229 13.0262C16.1163 12.9517 16.0037 12.8771 15.8911 12.8149Z" fill="#02075C"/>
<path d="M17.1551 13.8342C17.1426 13.8218 17.1301 13.8093 17.1176 13.7845C17.0926 13.7596 17.08 13.7472 17.055 13.7223C16.9424 13.6105 16.8298 13.4986 16.6921 13.3867C16.6045 13.3121 16.5044 13.2376 16.4043 13.163C16.3418 13.1133 16.2917 13.076 16.2292 13.0263C16.1291 12.9517 16.0039 12.8771 15.8913 12.815C15.8162 12.7777 15.7537 12.728 15.6786 12.6907C15.5785 12.6285 15.4659 12.5788 15.3533 12.5167C15.2532 12.4669 15.1656 12.4172 15.0655 12.3675C14.2772 11.9822 13.3637 11.6714 12.3126 11.4104L8.52125 10.5279C7.19489 10.2172 6.26894 9.84431 5.73088 9.38442C5.19283 8.92452 4.91755 8.35277 4.91755 7.68157C4.91755 6.78665 5.29293 6.07816 6.04371 5.56855C6.79448 5.05894 7.85807 4.79792 9.24699 4.79792C10.5233 4.79792 11.662 5.02166 12.6505 5.46912C13.5389 5.86686 14.2772 6.43862 14.8778 7.18439C15.5034 6.00359 16.2417 4.90979 17.1176 3.89057C16.4919 3.21938 15.7036 2.66005 14.7401 2.18773C13.1885 1.42953 11.3742 1.05664 9.30956 1.05664C7.54525 1.05664 6.01868 1.34252 4.70483 1.91428C3.39098 2.48603 2.38995 3.26909 1.70175 4.27589C1.01354 5.28268 0.663181 6.43862 0.663181 7.75615C0.663181 9.37199 1.21375 10.7268 2.30236 11.8082C3.39098 12.8895 5.01765 13.685 7.16986 14.1822L10.8987 15.0647C12.15 15.3754 13.0509 15.7608 13.589 16.2331C14.127 16.7054 14.4023 17.3144 14.4023 18.0478C14.4023 19.0049 14.0019 19.7755 13.2136 20.3472C12.4253 20.919 11.2991 21.2049 9.84761 21.2049C8.34607 21.2049 7.01971 20.8941 5.83099 20.2727C4.65478 19.6512 3.72883 18.7563 3.04062 17.6003L0 19.7382C0.775797 21.354 2.00206 22.6218 3.7038 23.5416C5.39304 24.4614 7.40761 24.9213 9.70997 24.9213C11.5869 24.9213 13.1885 24.623 14.5274 24.0388C15.8663 23.4546 16.8923 22.6218 17.5931 21.5405C18.2938 20.4715 18.6441 19.2286 18.6441 17.8365C18.6441 16.4195 18.2562 15.2263 17.5055 14.2444L17.3178 14.0206C17.2677 13.946 17.2177 13.8839 17.1551 13.8342Z" fill="#02075C"/>
<path d="M15.6787 12.6777C15.7538 12.715 15.8164 12.7647 15.8914 12.802C15.8164 12.7647 15.7538 12.7275 15.6787 12.6777Z" fill="#02075C"/>
<path d="M15.0779 12.355C15.178 12.4047 15.2781 12.4544 15.3657 12.5041C15.2656 12.4544 15.178 12.4047 15.0779 12.355Z" fill="#02075C"/>
<path d="M17.3179 14.0082L17.5056 14.2319C17.393 14.0952 17.2804 13.9585 17.1553 13.8218C17.2178 13.8839 17.2679 13.9461 17.3179 14.0082Z" fill="#02075C"/>
<path d="M16.2292 13.0259C16.2918 13.0756 16.3544 13.1129 16.4044 13.1626C16.3419 13.1129 16.2918 13.0756 16.2292 13.0259Z" fill="#02075C"/>
<path d="M16.6921 13.3867C16.8173 13.4986 16.9299 13.6105 17.055 13.7223C16.9424 13.6105 16.8298 13.4986 16.6921 13.3867Z" fill="#02075C"/>
<path d="M23.8998 1.41699C22.4733 2.11304 21.172 3.00797 20.0208 4.07691C18.4567 5.54359 17.1929 7.32101 16.3295 9.30973C16.1918 9.6329 16.0667 9.95607 15.9541 10.2917C17.0803 10.8261 18.0062 11.46 18.7445 12.2307C18.8696 12.355 18.9822 12.4917 19.0948 12.6284C19.9332 9.14815 22.3607 6.22721 25.5515 4.68595L23.8998 1.41699Z" fill="#FF7F36"/>
</svg>
