<svg width="71" height="28" viewBox="0 0 71 28" fill="none" xmlns="http://www.w3.org/2000/svg">
<path d="M66.2585 5.21797C65.7826 4.70656 65.5447 4.06057 65.5447 3.28C65.5447 2.49943 65.7826 1.85344 66.2585 1.34203C66.7343 0.844083 67.3605 0.588379 68.1244 0.588379C68.8758 0.588379 69.4894 0.844083 69.9527 1.35549C70.4286 1.8669 70.6665 2.51289 70.6665 3.29346C70.6665 4.07403 70.4286 4.72002 69.9527 5.23143C69.4769 5.74284 68.8632 5.99854 68.1244 5.99854C67.3605 5.98508 66.7343 5.72938 66.2585 5.21797Z" fill="#EBECFF"/>
<path d="M70.1408 8.99951H66.1084V27.0738H70.1408V8.99951Z" fill="#EBECFF"/>
<path d="M54.5871 7.15603C51.8571 6.87341 49.34 7.86931 47.4616 9.61887V1.08643H43.4292V27.074H47.399V24.8669V24.194C47.399 24.194 47.399 24.2075 47.4115 24.2075C47.8748 25.2034 48.6763 25.9705 49.6155 26.4415C50.8428 27.074 52.2203 27.4374 53.6855 27.4374C54.1238 27.4374 54.5495 27.397 54.9753 27.3297C59.8467 26.6165 63.541 21.933 63.1152 16.4152C62.7395 11.5838 59.0953 7.61361 54.5871 7.15603ZM53.6729 23.4538C53.5853 23.4538 53.4976 23.4403 53.4225 23.4403C50.3669 23.2923 47.9374 20.6007 47.9374 17.2765C47.9374 15.7692 48.4384 14.3965 49.2649 13.3333C50.5046 11.7453 52.4582 10.8301 54.5996 11.1935C57.1042 11.6107 59.0828 13.8447 59.3708 16.5498C59.7841 20.2777 57.0666 23.4538 53.6729 23.4538Z" fill="#EBECFF"/>
<path d="M29.8672 7.15599C32.5972 6.87337 35.1143 7.86927 36.9927 9.61882V7.97693H41.0251V27.074H37.0553V24.8669V24.194C37.0553 24.194 37.0553 24.2074 37.0428 24.2074C36.5794 25.2033 35.778 25.9704 34.8388 26.4415C33.6115 27.074 32.234 27.4374 30.7688 27.4374C30.3305 27.4374 29.9047 27.397 29.479 27.3297C24.6076 26.6164 20.9133 21.933 21.3391 16.4152C21.7022 11.5837 25.3464 7.61356 29.8672 7.15599ZM30.7688 23.4538C30.8565 23.4538 30.9441 23.4403 31.0193 23.4403C34.0749 23.2923 36.5043 20.6006 36.5043 17.2765C36.5043 15.7692 36.0034 14.3964 35.1769 13.3333C33.9371 11.7452 31.9835 10.8301 29.8421 11.1934C27.3375 11.6106 25.3589 13.8447 25.0709 16.5497C24.6576 20.2776 27.3751 23.4538 30.7688 23.4538Z" fill="#EBECFF"/>
<path d="M16.4175 14.8408C16.5177 14.9216 16.6178 15.0023 16.7055 15.0831C16.6178 15.0023 16.5177 14.9216 16.4175 14.8408Z" fill="#EBECFF"/>
<path d="M15.3784 14.127C15.4911 14.1942 15.5913 14.2481 15.704 14.3154C15.5913 14.2615 15.4786 14.1942 15.3784 14.127Z" fill="#EBECFF"/>
<path d="M17.1685 15.5665C17.156 15.5531 17.1435 15.5263 17.131 15.5129C17.1059 15.486 17.0934 15.4726 17.0684 15.4458C17.0934 15.4726 17.1185 15.486 17.131 15.5129C17.1435 15.5263 17.156 15.5397 17.1685 15.5665Z" fill="#EBECFF"/>
<path d="M15.9041 14.4634C16.0168 14.5441 16.1295 14.6114 16.2422 14.6922C16.1295 14.6114 16.0168 14.5307 15.9041 14.4634Z" fill="#EBECFF"/>
<path d="M17.1689 15.5674C17.1564 15.5539 17.1438 15.5404 17.1313 15.5135C17.1063 15.4866 17.0937 15.4732 17.0687 15.4462C16.956 15.3251 16.8433 15.204 16.7055 15.0829C16.6179 15.0021 16.5177 14.9214 16.4175 14.8406C16.3549 14.7868 16.3048 14.7464 16.2422 14.6926C16.142 14.6118 16.0168 14.5311 15.9041 14.4638C15.8289 14.4234 15.7663 14.3696 15.6912 14.3292C15.591 14.2619 15.4783 14.2081 15.3656 14.1408C15.2654 14.087 15.1777 14.0331 15.0776 13.9793C14.2886 13.5621 13.3744 13.2257 12.3225 12.943L8.52809 11.9875C7.20066 11.6511 6.27397 11.2473 5.73548 10.7494C5.197 10.2514 4.9215 9.63233 4.9215 8.9056C4.9215 7.93661 5.29718 7.1695 6.04856 6.61772C6.79993 6.06593 7.86438 5.78331 9.25442 5.78331C10.5318 5.78331 11.6713 6.02556 12.6606 6.51005C13.5498 6.94071 14.2886 7.55978 14.8897 8.36727C15.5159 7.08875 16.2547 5.90444 17.1313 4.80087C16.5052 4.07413 15.7162 3.46852 14.752 2.95711C13.1991 2.13617 11.3833 1.73242 9.31703 1.73242C7.5513 1.73242 6.02351 2.04196 4.70861 2.66103C3.3937 3.2801 2.39187 4.12797 1.70311 5.21807C1.01435 6.30818 0.663713 7.55978 0.663713 8.98635C0.663713 10.7359 1.21472 12.2028 2.30421 13.3737C3.3937 14.5445 5.02168 15.4059 7.17562 15.9442L10.9074 16.8997C12.1597 17.2362 13.0614 17.6534 13.5999 18.1648C14.1383 18.6762 14.4138 19.3356 14.4138 20.1297C14.4138 21.1659 14.0131 22.0003 13.2242 22.6194C12.4352 23.2385 11.3082 23.548 9.85551 23.548C8.35277 23.548 7.02534 23.2116 5.83567 22.5387C4.65852 21.8658 3.73182 20.8968 3.04306 19.6452L0 21.96C0.776419 23.7095 2.00366 25.0822 3.70678 26.0781C5.39737 27.074 7.41355 27.572 9.71776 27.572C11.5962 27.572 13.1991 27.249 14.5391 26.6165C15.879 25.9839 16.9059 25.0822 17.6072 23.9114C18.3085 22.754 18.6591 21.4082 18.6591 19.9009C18.6591 18.3666 18.2709 17.0747 17.5195 16.0115L17.3317 15.7692C17.2816 15.6885 17.2315 15.6212 17.1689 15.5674Z" fill="#EBECFF"/>
<path d="M15.6914 14.3154C15.7665 14.3557 15.8292 14.4093 15.9043 14.4496C15.8292 14.4093 15.7665 14.3691 15.6914 14.3154Z" fill="#EBECFF"/>
<path d="M15.0898 13.9658C15.19 14.0195 15.2902 14.0731 15.3779 14.1268C15.2777 14.0731 15.19 14.0195 15.0898 13.9658Z" fill="#EBECFF"/>
<path d="M17.3315 15.7556L17.5193 15.9978C17.4066 15.8498 17.2939 15.7017 17.1687 15.5537C17.2313 15.621 17.2814 15.6883 17.3315 15.7556Z" fill="#EBECFF"/>
<path d="M16.2427 14.6924C16.3053 14.746 16.3679 14.7863 16.418 14.8399C16.3554 14.7863 16.3053 14.746 16.2427 14.6924Z" fill="#EBECFF"/>
<path d="M16.7058 15.083C16.831 15.2041 16.9437 15.3253 17.069 15.4464C16.9563 15.3253 16.8436 15.2041 16.7058 15.083Z" fill="#EBECFF"/>
<path d="M23.9186 2.12256C22.491 2.87621 21.1886 3.8452 20.0365 5.0026C18.4711 6.59065 17.2063 8.51516 16.3422 10.6685C16.2045 11.0184 16.0793 11.3683 15.9666 11.7317C17.0936 12.3104 18.0203 12.9967 18.7592 13.8311C18.8844 13.9657 18.9971 14.1137 19.1098 14.2618C19.9488 10.4935 22.3783 7.33085 25.5716 5.66204L23.9186 2.12256Z" fill="#FF7F36"/>
</svg>
