<svg width="69" height="30" viewBox="0 0 69 30" fill="none" xmlns="http://www.w3.org/2000/svg">
<path d="M19.729 23.3532C19.7846 23.6711 19.8131 23.9982 19.8131 24.3338C19.8131 27.4324 17.3024 29.9439 14.203 29.9439C11.1029 29.9439 8.59141 27.4317 8.59141 24.3338C8.59141 23.9974 8.6215 23.6711 8.67551 23.3532H11.6383C11.5211 23.6587 11.4578 23.9889 11.4578 24.3338C11.4578 25.8492 12.6861 27.0783 14.2023 27.0783C15.7168 27.0783 16.9467 25.8492 16.9467 24.3338C16.9467 23.9889 16.8835 23.6579 16.7662 23.3532H19.729ZM62.9384 24.3338C62.9384 27.4324 60.4277 29.9439 57.3291 29.9439C54.2289 29.9439 51.719 27.4317 51.719 24.3338C51.719 21.236 54.2312 18.7238 57.3291 18.7238C60.4261 18.7238 62.9384 21.2352 62.9384 24.3338ZM60.072 24.3338C60.072 22.8185 58.8452 21.5894 57.3291 21.5894C55.8129 21.5894 54.5846 22.8185 54.5846 24.3338C54.5846 25.8492 55.8129 27.0783 57.3291 27.0783C58.8452 27.0783 60.072 25.8492 60.072 24.3338ZM68.1904 20.4822V23.0222C68.1904 23.553 67.7576 23.9851 67.226 23.9851L64.8526 23.9805C64.6736 19.9814 61.3713 16.7972 57.3298 16.7972C53.3246 16.7972 50.0501 19.9259 49.8155 23.8724H21.7474V23.7305C21.7474 22.8439 21.0283 22.1248 20.1426 22.1248H8.26272C7.37542 22.1248 6.65632 22.8439 6.65632 23.7305V23.8732H0.80706C0.352607 23.7953 0 23.4157 0 22.9404V20.3996C0 19.8688 0.431307 19.4367 0.962917 19.4367H1.13189L1.13498 3.26616C1.13498 1.49387 2.57241 0.0556641 4.34624 0.0556641L50.6488 0.0649237C51.9782 0.0649237 52.81 0.515519 53.678 1.66979L60.7008 11.9486H64.4699C65.8896 11.9486 67.0408 13.0975 67.0408 14.5164V19.52H67.226C67.7576 19.5192 68.1904 19.9498 68.1904 20.4822ZM46.784 10.3723H44.4662C44.305 10.1802 44.0596 10.0498 43.7263 10.0498C42.4378 10.0498 42.4378 11.9772 43.7217 11.9772C44.0565 11.9772 44.305 11.8475 44.4647 11.6554H46.784C47.6397 11.6554 47.6397 10.3723 46.784 10.3723ZM54.9411 7.65098L51.6426 3.0046C51.1557 2.36111 50.9551 2.3125 50.4235 2.3125H45.5048C44.9732 2.3125 44.5419 2.74381 44.5419 3.27696V7.65098C44.5419 8.18414 44.9732 8.61544 45.5048 8.61544H54.6594C55.1895 8.61544 55.3176 8.18414 54.9411 7.65098Z" fill="#1E3448"/>
</svg>
