<svg width="50" height="19" viewBox="0 0 50 19" fill="none" xmlns="http://www.w3.org/2000/svg">
<path d="M44.0659 12.2792C44.5272 12.2791 44.9839 12.3709 45.4093 12.5493C45.8348 12.7277 46.2204 12.989 46.5437 13.3181H49.5992V10.5404L46.7603 9.55704H41.0604C40.9337 9.55704 40.8122 9.5067 40.7226 9.41711C40.633 9.32751 40.5827 9.20599 40.5827 9.07927V5.88489H38.916V15.718H40.5827C40.5958 14.8024 40.9684 13.9286 41.62 13.2853C42.2717 12.6419 43.1502 12.2806 44.0659 12.2792Z" fill="#5C6F7F"/>
<path d="M41.5391 8.62928H45.2279L43.9612 5.88489H41.5391V8.62928Z" fill="#5C6F7F"/>
<path d="M35.5882 0.7052H0V11.4939H35.5882V0.7052Z" fill="#5C6F7F"/>
<path d="M49.5893 14.2833H47.2227C47.3666 14.5859 47.4658 14.9078 47.5171 15.2389H48.656C48.8475 15.236 49.0364 15.1944 49.2115 15.1166C49.3931 15.0393 49.5569 14.9254 49.6926 14.782C49.8283 14.6387 49.9331 14.4689 50.0004 14.2833H49.5893Z" fill="#5C6F7F"/>
<path d="M11.7653 12.49H6.35986C7.05676 12.7366 7.65769 13.1975 8.0765 13.8066C8.46443 14.3693 8.67706 15.0343 8.6876 15.7177H9.44314C9.45368 15.0343 9.66631 14.3693 10.0542 13.8066C10.4716 13.1984 11.0705 12.7376 11.7653 12.49Z" fill="#5C6F7F"/>
<path d="M4.04437 12.49H0V13.8066H1.19998C1.13186 13.985 1.08886 14.172 1.0722 14.3622L0.949983 15.7233H1.71664C1.72717 15.0399 1.93981 14.3749 2.32774 13.8122C2.74568 13.201 3.3467 12.738 4.04437 12.49Z" fill="#5C6F7F"/>
<path d="M24.0784 12.49H14.0786C14.7755 12.7366 15.3764 13.1975 15.7952 13.8066C16.1832 14.3693 16.3958 15.0343 16.4063 15.7177H17.173L17.0508 14.3566C17.0341 14.1664 16.9911 13.9794 16.923 13.8011H21.234C21.1659 13.9794 21.1229 14.1664 21.1063 14.3566L20.984 15.7177H21.7507C21.7612 15.0343 21.9739 14.3693 22.3618 13.8066C22.7806 13.1975 23.3815 12.7366 24.0784 12.49Z" fill="#5C6F7F"/>
<path d="M31.7993 12.49H26.3938C27.0907 12.7366 27.6916 13.1975 28.1104 13.8066C28.4984 14.3693 28.711 15.0343 28.7215 15.7177H29.4826C29.4932 15.0343 29.7058 14.3693 30.0937 13.8066C30.5096 13.1993 31.1064 12.7386 31.7993 12.49Z" fill="#5C6F7F"/>
<path d="M34.1162 12.49C34.785 12.7272 35.3657 13.1627 35.7806 13.7384C36.1955 14.3141 36.425 15.0026 36.4384 15.7122H37.9717V12.49H34.1162Z" fill="#5C6F7F"/>
<path d="M42.8557 4.92937L38.4558 2.27942H37.0225V11.4959H37.978V5.38492C37.978 5.25821 38.0283 5.13668 38.1179 5.04708C38.2075 4.95748 38.3291 4.90715 38.4558 4.90715H42.8557V4.92937Z" fill="#5C6F7F"/>
<path d="M5.50021 13.256H4.90578C4.30328 13.3303 3.74751 13.6186 3.33966 14.0682C2.93181 14.5179 2.69899 15.0991 2.68359 15.7059C2.68359 15.7059 2.68359 15.7448 2.68359 15.767C2.68359 16.099 2.74898 16.4277 2.87601 16.7344C3.00304 17.041 3.18923 17.3197 3.42395 17.5544C3.65867 17.7891 3.93733 17.9753 4.244 18.1024C4.55068 18.2294 4.87938 18.2948 5.21133 18.2948C5.54327 18.2948 5.87197 18.2294 6.17865 18.1024C6.48533 17.9753 6.76398 17.7891 6.9987 17.5544C7.23342 17.3197 7.41961 17.041 7.54665 16.7344C7.67368 16.4277 7.73906 16.099 7.73906 15.767C7.73906 15.767 7.73906 15.7282 7.73906 15.7059C7.72311 15.0965 7.48794 14.5133 7.0767 14.0633C6.66546 13.6133 6.10572 13.3266 5.50021 13.256ZM5.21133 16.6726C5.09241 16.6726 4.97466 16.6492 4.86479 16.6037C4.75493 16.5581 4.6551 16.4914 4.57101 16.4074C4.48693 16.3233 4.42022 16.2234 4.37472 16.1136C4.32921 16.0037 4.30579 15.886 4.30579 15.767C4.30579 15.767 4.30579 15.7282 4.30579 15.7059C4.32362 15.4787 4.42647 15.2666 4.5938 15.1119C4.76114 14.9572 4.98065 14.8713 5.20855 14.8713C5.43644 14.8713 5.65596 14.9572 5.82329 15.1119C5.99063 15.2666 6.09347 15.4787 6.11131 15.7059C6.11131 15.7059 6.11131 15.7448 6.11131 15.767C6.11131 16.0063 6.01667 16.2357 5.84805 16.4054C5.67943 16.5751 5.45053 16.6711 5.21133 16.6726Z" fill="#5C6F7F"/>
<path d="M13.2219 13.256H12.6275C12.025 13.3303 11.4692 13.6186 11.0613 14.0682C10.6535 14.5179 10.4207 15.0991 10.4053 15.7059C10.4053 15.7059 10.4053 15.7448 10.4053 15.767C10.4053 16.4374 10.6716 17.0804 11.1456 17.5544C11.6197 18.0285 12.2626 18.2948 12.933 18.2948C13.6034 18.2948 14.2463 18.0285 14.7204 17.5544C15.1944 17.0804 15.4607 16.4374 15.4607 15.767C15.4607 15.767 15.4607 15.7282 15.4607 15.7059C15.4448 15.0965 15.2096 14.5133 14.7984 14.0633C14.3871 13.6133 13.8274 13.3266 13.2219 13.256ZM12.933 16.6726C12.8141 16.6726 12.6963 16.6492 12.5865 16.6037C12.4766 16.5581 12.3768 16.4914 12.2927 16.4074C12.2086 16.3233 12.1419 16.2234 12.0964 16.1136C12.0509 16.0037 12.0275 15.886 12.0275 15.767C12.0275 15.767 12.0275 15.7282 12.0275 15.7059C12.0453 15.4787 12.1481 15.2666 12.3155 15.1119C12.4828 14.9572 12.7023 14.8713 12.9302 14.8713C13.1581 14.8713 13.3776 14.9572 13.545 15.1119C13.7123 15.2666 13.8152 15.4787 13.833 15.7059C13.833 15.7059 13.833 15.7448 13.833 15.767C13.833 16.0063 13.7384 16.2357 13.5697 16.4054C13.4011 16.5751 13.1722 16.6711 12.933 16.6726Z" fill="#5C6F7F"/>
<path d="M25.5556 13.256H24.939C24.3365 13.3303 23.7807 13.6186 23.3729 14.0682C22.965 14.5179 22.7322 15.0991 22.7168 15.7059C22.7168 15.7059 22.7168 15.7448 22.7168 15.767C22.7168 16.4374 22.9831 17.0804 23.4572 17.5544C23.9312 18.0285 24.5741 18.2948 25.2445 18.2948C25.9149 18.2948 26.5579 18.0285 27.0319 17.5544C27.5059 17.0804 27.7723 16.4374 27.7723 15.767C27.7723 15.767 27.7723 15.7282 27.7723 15.7059C27.7571 15.0999 27.525 14.5194 27.1183 14.0699C26.7116 13.6203 26.1571 13.3316 25.5556 13.256ZM25.2668 16.6726C25.1478 16.6726 25.0301 16.6492 24.9202 16.6037C24.8104 16.5581 24.7105 16.4914 24.6264 16.4074C24.5424 16.3233 24.4756 16.2234 24.4301 16.1136C24.3846 16.0037 24.3612 15.886 24.3612 15.767C24.3612 15.767 24.3612 15.7282 24.3612 15.7059C24.379 15.4787 24.4819 15.2666 24.6492 15.1119C24.8166 14.9572 25.0361 14.8713 25.264 14.8713C25.4919 14.8713 25.7114 14.9572 25.8787 15.1119C26.0461 15.2666 26.1489 15.4787 26.1667 15.7059C26.1667 15.7059 26.1667 15.7448 26.1667 15.767C26.1668 15.8874 26.1428 16.0065 26.0962 16.1175C26.0497 16.2284 25.9815 16.329 25.8956 16.4133C25.8098 16.4976 25.708 16.564 25.5962 16.6085C25.4844 16.653 25.3648 16.6748 25.2445 16.6726H25.2668Z" fill="#5C6F7F"/>
<path d="M33.2551 13.256H32.6607C32.0582 13.3303 31.5024 13.6186 31.0945 14.0682C30.6867 14.5179 30.4539 15.0991 30.4385 15.7059C30.4385 15.7059 30.4385 15.7448 30.4385 15.767C30.4385 16.4374 30.7048 17.0804 31.1788 17.5544C31.6529 18.0285 32.2958 18.2948 32.9662 18.2948C33.6366 18.2948 34.2795 18.0285 34.7536 17.5544C35.2276 17.0804 35.4939 16.4374 35.4939 15.767C35.4939 15.767 35.4939 15.7282 35.4939 15.7059C35.478 15.0965 35.2428 14.5133 34.8316 14.0633C34.4203 13.6133 33.8606 13.3266 33.2551 13.256ZM32.9662 16.6726C32.8473 16.6726 32.7295 16.6492 32.6197 16.6037C32.5098 16.5581 32.41 16.4914 32.3259 16.4074C32.2418 16.3233 32.1751 16.2234 32.1296 16.1136C32.0841 16.0037 32.0607 15.886 32.0607 15.767C32.0607 15.767 32.0607 15.7282 32.0607 15.7059C32.0785 15.4787 32.1814 15.2666 32.3487 15.1119C32.516 14.9572 32.7355 14.8713 32.9634 14.8713C33.1913 14.8713 33.4108 14.9572 33.5782 15.1119C33.7455 15.2666 33.8484 15.4787 33.8662 15.7059C33.8662 15.7059 33.8662 15.7448 33.8662 15.767C33.8662 16.0063 33.7716 16.2357 33.6029 16.4054C33.4343 16.5751 33.2054 16.6711 32.9662 16.6726Z" fill="#5C6F7F"/>
<path d="M44.3264 13.256H43.7319C43.1294 13.3303 42.5737 13.6186 42.1658 14.0682C41.758 14.5179 41.5252 15.0991 41.5098 15.7059C41.5098 15.7059 41.5098 15.7448 41.5098 15.767C41.5098 16.4374 41.7761 17.0804 42.2501 17.5544C42.7242 18.0285 43.3671 18.2948 44.0375 18.2948C44.7079 18.2948 45.3508 18.0285 45.8249 17.5544C46.2989 17.0804 46.5652 16.4374 46.5652 15.767C46.5652 15.767 46.5652 15.7282 46.5652 15.7059C46.5493 15.0965 46.3141 14.5133 45.9029 14.0633C45.4916 13.6133 44.9319 13.3266 44.3264 13.256ZM44.0375 16.6726C43.9186 16.6726 43.8008 16.6492 43.691 16.6037C43.5811 16.5581 43.4813 16.4914 43.3972 16.4074C43.3131 16.3233 43.2464 16.2234 43.2009 16.1136C43.1554 16.0037 43.132 15.886 43.132 15.767C43.132 15.767 43.132 15.7282 43.132 15.7059C43.1498 15.4787 43.2526 15.2666 43.42 15.1119C43.5873 14.9572 43.8068 14.8713 44.0347 14.8713C44.2626 14.8713 44.4821 14.9572 44.6495 15.1119C44.8168 15.2666 44.9196 15.4787 44.9375 15.7059C44.9375 15.7059 44.9375 15.7448 44.9375 15.767C44.9375 15.886 44.9141 16.0037 44.8685 16.1136C44.823 16.2234 44.7563 16.3233 44.6723 16.4074C44.5882 16.4914 44.4883 16.5581 44.3785 16.6037C44.2686 16.6492 44.1509 16.6726 44.0319 16.6726H44.0375Z" fill="#5C6F7F"/>
</svg>
