<svg width="72" height="72" viewBox="0 0 72 72" fill="none" xmlns="http://www.w3.org/2000/svg">
<circle cx="36" cy="36" r="34" fill="#FFC042" stroke="#FFECC7" stroke-width="4"/>
<path d="M32.0001 34.6667C34.9456 34.6667 37.3334 32.2789 37.3334 29.3333C37.3334 26.3878 34.9456 24 32.0001 24C29.0546 24 26.6667 26.3878 26.6667 29.3333C26.6667 32.2789 29.0546 34.6667 32.0001 34.6667Z" stroke="#FFF7E6" stroke-width="2" stroke-linecap="round" stroke-linejoin="round"/>
<path d="M22.6667 48V42.6667C22.6667 41.1939 23.8607 40 25.3334 40H38.6667C40.1395 40 41.3334 41.1939 41.3334 42.6667V48" stroke="#FFF7E6" stroke-width="2" stroke-linecap="round" stroke-linejoin="round"/>
<path d="M41.3333 24C42.4805 24.2937 43.4973 24.9609 44.2234 25.8964C44.9495 26.8319 45.3437 27.9824 45.3437 29.1667C45.3437 30.3509 44.9495 31.5014 44.2234 32.4369C43.4973 33.3724 42.4805 34.0396 41.3333 34.3333" stroke="#FFF7E6" stroke-width="2" stroke-linecap="round" stroke-linejoin="round"/>
<path d="M45.3333 40H46.6666C48.1394 40 49.3333 41.1939 49.3333 42.6667V48" stroke="#FFF7E6" stroke-width="2" stroke-linecap="round" stroke-linejoin="round"/>
</svg>
