<svg width="64" height="64" viewBox="0 0 64 64" fill="none" xmlns="http://www.w3.org/2000/svg">
<path d="M24.8 44C24.4101 45.372 23.6046 46.5895 22.4943 47.4849C21.384 48.3803 20.0235 48.9096 18.6 49C15.9 49 14.4 46.8 15.2 44C15.5899 42.628 16.3954 41.4105 17.5057 40.5151C18.616 39.6197 19.9765 39.0904 21.4 39C24 39 25.6 41.2 24.8 44ZM48.8 44C48.4101 45.372 47.6046 46.5895 46.4943 47.4849C45.384 48.3803 44.0235 48.9096 42.6 49C39.9 49 38.4 46.8 39.2 44C39.5899 42.628 40.3954 41.4105 41.5057 40.5151C42.616 39.6197 43.9765 39.0904 45.4 39C48 39 49.6 41.2 48.8 44Z" fill="#A6B1C9"/>
<path d="M55.1 31L51.1 33H41C41 33 44.1 20.3 44.7 18.1C45.3 15.9 45.3 15 43 15H17L9 43H15.6C16.1182 41.8737 16.9303 40.9078 17.951 40.2039C18.9716 39.5 20.163 39.0842 21.4 39C21.9132 38.98 22.4245 39.0732 22.8977 39.273C23.3708 39.4727 23.7942 39.7742 24.1378 40.156C24.4814 40.5377 24.7367 40.9904 24.8857 41.4819C25.0348 41.9734 25.0738 42.4917 25 43H39.6C40.1182 41.8737 40.9303 40.9078 41.951 40.2039C42.9716 39.5 44.163 39.0842 45.4 39C45.9132 38.98 46.4245 39.0732 46.8977 39.273C47.3708 39.4727 47.7942 39.7742 48.1378 40.156C48.4814 40.5377 48.7367 40.9904 48.8857 41.4819C49.0348 41.9734 49.0738 42.4917 49 43H57C58.5 43 59 42.3 59 41V33L55.1 31Z" fill="#C3D6F9"/>
<path d="M51.1 33L55.1 31L49 23H43.5L41 33H51.1Z" fill="#E0EAFC"/>
<path d="M17 15H43C45.3 15 45.1 16.6 44.7 18.1C44.3 19.6 41 33 41 33H51.1L55.1 31L59 33V41C59 42.3 58.5 43 57 43H49M9 43H15.6M25 43H39.6" stroke="#2E4369" stroke-linecap="round" stroke-linejoin="round"/>
<path d="M43.6 23H49L55.1 31M31 23H9M27 31H5M24.8 44C24.4101 45.372 23.6046 46.5895 22.4943 47.4849C21.384 48.3803 20.0235 48.9096 18.6 49C15.9 49 14.4 46.8 15.2 44C15.5899 42.628 16.3954 41.4105 17.5057 40.5151C18.616 39.6197 19.9765 39.0904 21.4 39C24 39 25.6 41.2 24.8 44ZM48.8 44C48.4101 45.372 47.6046 46.5895 46.4943 47.4849C45.384 48.3803 44.0235 48.9096 42.6 49C39.9 49 38.4 46.8 39.2 44C39.5899 42.628 40.3954 41.4105 41.5057 40.5151C42.616 39.6197 43.9765 39.0904 45.4 39C48 39 49.6 41.2 48.8 44Z" stroke="#2E4369" stroke-linecap="round" stroke-linejoin="round"/>
</svg>
