<svg width="62" height="62" viewBox="0 0 62 62" fill="none" xmlns="http://www.w3.org/2000/svg">
<path d="M31 7L6 22.741V61H56V22.741L31 7Z" fill="#C7E2FB"/>
<path d="M31 7L6 22.741V50.978C6.334 50.984 6.665 51 7 51C28.699 51 46.717 37.252 50.328 19.17L31 7Z" fill="#EBF7FE"/>
<path d="M12 31H50V61H12V31Z" fill="#C1C8D1"/>
<path d="M40 51H48V57H40V51Z" fill="#976947"/>
<path d="M48 51H56V57H48V51Z" fill="#CDA57D"/>
<path d="M44 45H52V51H44V45Z" fill="#C18E5C"/>
<path d="M1 20L31 1L61 20L58 24L31 7L4 24L1 20Z" fill="#88929F"/>
<path d="M12 43H20V49H12V43Z" fill="#C18E5C"/>
<path d="M12 49H20V55H12V49Z" fill="#CDA57D"/>
<path d="M12 55H20V61H12V55Z" fill="#C18E5C"/>
<path d="M20 55H28V61H20V55Z" fill="#CDA57D"/>
<path d="M28 55H36V61H28V55Z" fill="#C18E5C"/>
<path d="M20 49H28V55H20V49Z" fill="#976947"/>
<path d="M0 60H62V62H0V60Z" fill="#88929F"/>
<path d="M19 21H43V27H19V21Z" fill="#C1C8D1"/>
<path d="M44 61C45.1046 61 46 60.1046 46 59C46 57.8954 45.1046 57 44 57C42.8954 57 42 57.8954 42 59C42 60.1046 42.8954 61 44 61Z" fill="#A0A8B2"/>
<path d="M54 61C55.1046 61 56 60.1046 56 59C56 57.8954 55.1046 57 54 57C52.8954 57 52 57.8954 52 59C52 60.1046 52.8954 61 54 61Z" fill="#A0A8B2"/>
<path d="M56.816 59.9997C56.928 59.6857 57 59.3517 57 58.9997C57 58.6477 56.928 58.3137 56.816 57.9997H59V55.9997H57V50.9997C57 50.4467 56.553 49.9997 56 49.9997H53V44.9997C53 44.4467 52.553 43.9997 52 43.9997H51V30.9997C51 30.4467 50.553 29.9997 50 29.9997H12C11.447 29.9997 11 30.4467 11 30.9997V59.9997H7V23.2927L31 8.18174L55 23.2937V47.9997H57V24.5527L57.467 24.8467C57.632 24.9497 57.816 24.9997 57.999 24.9997C58.305 24.9997 58.604 24.8597 58.8 24.5997L61.8 20.5997C61.968 20.3767 62.034 20.0937 61.984 19.8197C61.934 19.5457 61.771 19.3047 61.536 19.1557L31.536 0.155738C31.21 -0.0512617 30.792 -0.0512617 30.466 0.155738L0.466 19.1557C0.231 19.3047 0.068 19.5457 0.018 19.8197C-0.034 20.0937 0.0320001 20.3767 0.2 20.5997L3.2 24.5997C3.512 25.0167 4.092 25.1237 4.533 24.8467L5 24.5527V59.9997H0V61.9997H62V59.9997H56.816ZM4.247 22.6627L2.449 20.2657L31 2.18374L59.551 20.2657L57.753 22.6627L31.533 6.15274C31.37 6.05074 31.185 5.99974 31 5.99974C30.815 5.99974 30.63 6.05074 30.467 6.15274L4.247 22.6627ZM55 58.9997C55 59.5517 54.552 59.9997 54 59.9997C53.448 59.9997 53 59.5517 53 58.9997C53 58.4477 53.448 57.9997 54 57.9997C54.552 57.9997 55 58.4477 55 58.9997ZM43 58.9997C43 58.4477 43.448 57.9997 44 57.9997C44.552 57.9997 45 58.4477 45 58.9997C45 59.5517 44.552 59.9997 44 59.9997C43.448 59.9997 43 59.5517 43 58.9997ZM41 51.9997H43V53.9997H45V51.9997H47V55.9997H41V51.9997ZM46.816 57.9997H51.185C51.072 58.3137 51 58.6477 51 58.9997C51 59.3517 51.072 59.6857 51.184 59.9997H46.815C46.928 59.6857 47 59.3517 47 58.9997C47 58.6477 46.928 58.3137 46.816 57.9997ZM55 55.9997H49V51.9997H51V53.9997H53V51.9997H55V55.9997ZM45 49.9997V45.9997H47V47.9997H49V45.9997H51V49.9997H45ZM44 43.9997C43.447 43.9997 43 44.4467 43 44.9997V49.9997H41V42.9997C41 42.4467 40.553 41.9997 40 41.9997H36V43.9997H39V56.9997C39 57.5527 39.447 57.9997 40 57.9997H41.184C41.072 58.3137 41 58.6477 41 58.9997C41 59.3517 41.072 59.6857 41.184 59.9997H37V54.9997C37 54.4467 36.553 53.9997 36 53.9997H29V48.9997C29 48.4467 28.553 47.9997 28 47.9997H21V42.9997C21 42.4467 20.553 41.9997 20 41.9997H13V39.9997H49V43.9997H44ZM13 53.9997V49.9997H15V51.9997H17V49.9997H19V53.9997H13ZM17 45.9997V43.9997H19V47.9997H13V43.9997H15V45.9997H17ZM25 51.9997V49.9997H27V53.9997H21V49.9997H23V51.9997H25ZM21 55.9997H23V57.9997H25V55.9997H27V59.9997H21V55.9997ZM29 55.9997H31V57.9997H33V55.9997H35V59.9997H29V55.9997ZM49 37.9997H13V35.9997H49V37.9997ZM49 31.9997V33.9997H13V31.9997H49ZM13 55.9997H15V57.9997H17V55.9997H19V59.9997H13V55.9997Z" fill="black"/>
<path d="M19 20C18.447 20 18 20.447 18 21V27C18 27.553 18.447 28 19 28H43C43.553 28 44 27.553 44 27V21C44 20.447 43.553 20 43 20H19ZM42 26H20V22H42V26Z" fill="black"/>
</svg>
