<svg width="64" height="64" viewBox="0 0 64 64" fill="none" xmlns="http://www.w3.org/2000/svg">
<path d="M32 8L7 23.741V62H57V23.741L32 8Z" fill="#C7E2FB"/>
<path d="M32 8L7 23.741V51.978C7.334 51.984 7.665 52 8 52C29.699 52 47.717 38.252 51.328 20.17L32 8Z" fill="#EBF7FE"/>
<path d="M13 32H51V62H13V32Z" fill="#C1C8D1"/>
<path d="M41 52H49V58H41V52Z" fill="#976947"/>
<path d="M49 52H57V58H49V52Z" fill="#CDA57D"/>
<path d="M45 46H53V52H45V46Z" fill="#C18E5C"/>
<path d="M2 21L32 2L62 21L59 25L32 8L5 25L2 21Z" fill="#88929F"/>
<path d="M13 44H21V50H13V44Z" fill="#C18E5C"/>
<path d="M13 50H21V56H13V50Z" fill="#CDA57D"/>
<path d="M13 56H21V62H13V56Z" fill="#C18E5C"/>
<path d="M21 56H29V62H21V56Z" fill="#CDA57D"/>
<path d="M29 56H37V62H29V56Z" fill="#C18E5C"/>
<path d="M21 50H29V56H21V50Z" fill="#976947"/>
<path d="M1 61H63V63H1V61Z" fill="#88929F"/>
<path d="M20 22H44V28H20V22Z" fill="#C1C8D1"/>
<path d="M45 62C46.1046 62 47 61.1046 47 60C47 58.8954 46.1046 58 45 58C43.8954 58 43 58.8954 43 60C43 61.1046 43.8954 62 45 62Z" fill="#A0A8B2"/>
<path d="M55 62C56.1046 62 57 61.1046 57 60C57 58.8954 56.1046 58 55 58C53.8954 58 53 58.8954 53 60C53 61.1046 53.8954 62 55 62Z" fill="#A0A8B2"/>
<path d="M57.816 60.9997C57.928 60.6857 58 60.3517 58 59.9997C58 59.6477 57.928 59.3137 57.816 58.9997H60V56.9997H58V51.9997C58 51.4467 57.553 50.9997 57 50.9997H54V45.9997C54 45.4467 53.553 44.9997 53 44.9997H52V31.9997C52 31.4467 51.553 30.9997 51 30.9997H13C12.447 30.9997 12 31.4467 12 31.9997V60.9997H8V24.2927L32 9.18174L56 24.2937V48.9997H58V25.5527L58.467 25.8467C58.632 25.9497 58.816 25.9997 58.999 25.9997C59.305 25.9997 59.604 25.8597 59.8 25.5997L62.8 21.5997C62.968 21.3767 63.034 21.0937 62.984 20.8197C62.934 20.5457 62.771 20.3047 62.536 20.1557L32.536 1.15574C32.21 0.948738 31.792 0.948738 31.466 1.15574L1.466 20.1557C1.231 20.3047 1.068 20.5457 1.018 20.8197C0.966 21.0937 1.032 21.3767 1.2 21.5997L4.2 25.5997C4.512 26.0167 5.092 26.1237 5.533 25.8467L6 25.5527V60.9997H1V62.9997H63V60.9997H57.816ZM5.247 23.6627L3.449 21.2657L32 3.18374L60.551 21.2657L58.753 23.6627L32.533 7.15274C32.37 7.05074 32.185 6.99974 32 6.99974C31.815 6.99974 31.63 7.05074 31.467 7.15274L5.247 23.6627ZM56 59.9997C56 60.5517 55.552 60.9997 55 60.9997C54.448 60.9997 54 60.5517 54 59.9997C54 59.4477 54.448 58.9997 55 58.9997C55.552 58.9997 56 59.4477 56 59.9997ZM44 59.9997C44 59.4477 44.448 58.9997 45 58.9997C45.552 58.9997 46 59.4477 46 59.9997C46 60.5517 45.552 60.9997 45 60.9997C44.448 60.9997 44 60.5517 44 59.9997ZM42 52.9997H44V54.9997H46V52.9997H48V56.9997H42V52.9997ZM47.816 58.9997H52.185C52.072 59.3137 52 59.6477 52 59.9997C52 60.3517 52.072 60.6857 52.184 60.9997H47.815C47.928 60.6857 48 60.3517 48 59.9997C48 59.6477 47.928 59.3137 47.816 58.9997ZM56 56.9997H50V52.9997H52V54.9997H54V52.9997H56V56.9997ZM46 50.9997V46.9997H48V48.9997H50V46.9997H52V50.9997H46ZM45 44.9997C44.447 44.9997 44 45.4467 44 45.9997V50.9997H42V43.9997C42 43.4467 41.553 42.9997 41 42.9997H37V44.9997H40V57.9997C40 58.5527 40.447 58.9997 41 58.9997H42.184C42.072 59.3137 42 59.6477 42 59.9997C42 60.3517 42.072 60.6857 42.184 60.9997H38V55.9997C38 55.4467 37.553 54.9997 37 54.9997H30V49.9997C30 49.4467 29.553 48.9997 29 48.9997H22V43.9997C22 43.4467 21.553 42.9997 21 42.9997H14V40.9997H50V44.9997H45ZM14 54.9997V50.9997H16V52.9997H18V50.9997H20V54.9997H14ZM18 46.9997V44.9997H20V48.9997H14V44.9997H16V46.9997H18ZM26 52.9997V50.9997H28V54.9997H22V50.9997H24V52.9997H26ZM22 56.9997H24V58.9997H26V56.9997H28V60.9997H22V56.9997ZM30 56.9997H32V58.9997H34V56.9997H36V60.9997H30V56.9997ZM50 38.9997H14V36.9997H50V38.9997ZM50 32.9997V34.9997H14V32.9997H50ZM14 56.9997H16V58.9997H18V56.9997H20V60.9997H14V56.9997Z" fill="black"/>
<path d="M20 21C19.447 21 19 21.447 19 22V28C19 28.553 19.447 29 20 29H44C44.553 29 45 28.553 45 28V22C45 21.447 44.553 21 44 21H20ZM43 27H21V23H43V27Z" fill="black"/>
</svg>
