<svg width="1158" height="310" viewBox="0 0 1158 310" fill="none" xmlns="http://www.w3.org/2000/svg">
<g filter="url(#filter0_d)">
<g clip-path="url(#clip0)">
<rect x="28" y="16" width="1110" height="262" rx="8" fill="white"/>
<path d="M1088.1 384.286C1168.66 348.387 1204.77 253.764 1168.63 172.66C1132.49 91.5552 1037.98 55.1405 957.424 91.0396C876.865 126.939 840.752 221.561 876.894 302.666C913.036 383.77 1007.54 420.185 1088.1 384.286Z" fill="#EDF2F7"/>
<path d="M1158.44 104.899C1164.95 101.996 1167.87 94.3446 1164.96 87.809C1162.05 81.2734 1154.4 78.3287 1147.89 81.2319C1141.38 84.135 1138.45 91.7867 1141.37 98.3223C1144.28 104.858 1151.92 107.803 1158.44 104.899Z" fill="#EAEEF9"/>
<path d="M843.961 255.072C848.41 253.089 850.404 247.864 848.415 243.4C846.426 238.937 841.207 236.926 836.758 238.909C832.309 240.891 830.315 246.117 832.304 250.58C834.292 255.043 839.512 257.054 843.961 255.072Z" fill="#EAEEF9"/>
<path d="M975.771 101.238L951.632 111.995L958.655 127.756L982.795 116.999L975.771 101.238Z" fill="#D1D9E7"/>
<path d="M898.261 173.409L891.015 192.381L904.799 197.688L912.045 178.716L898.261 173.409Z" fill="#D5DDEA"/>
<path d="M1055.27 113.73L1074.23 121.027L1078.95 108.667L1059.99 101.369L1055.27 113.73Z" fill="#D5DDEA"/>
<path d="M1084.18 352.821C1148.36 324.222 1177.14 248.869 1148.47 184.517C1119.79 120.165 1044.51 91.1821 980.335 119.782C916.155 148.382 887.375 223.735 916.052 288.087C944.729 352.439 1020 381.421 1084.18 352.821Z" fill="#D5DDEA"/>
<g filter="url(#filter1_d)">
<path d="M1075.28 351.726C1139.46 323.126 1168.24 247.774 1139.57 183.422C1110.89 119.07 1035.62 90.0871 971.436 118.687C907.257 147.287 878.476 222.64 907.153 286.992C935.83 351.344 1011.11 380.326 1075.28 351.726Z" fill="url(#paint0_linear)"/>
</g>
<path d="M923.791 287.336C920.984 288.587 917.735 287.336 916.481 284.522C916.23 283.959 915.979 283.396 915.854 283.114C891.648 228.795 911.624 164.907 962.226 134.261C964.908 132.728 968.312 133.573 969.847 136.262C971.382 138.952 970.546 142.36 967.864 143.893C922.064 171.724 904.136 229.639 925.959 278.611C926.21 279.174 926.335 279.456 926.586 280.019C927.84 282.833 926.598 286.085 923.791 287.336Z" fill="white"/>
<path opacity="0.3" d="M1114.02 194.805C1114.53 195.931 1114.9 196.775 1115.4 197.901C1135.42 247.342 1112.99 304.226 1063.87 326.115C1014.75 348.005 957.459 326.646 934.077 278.705C933.575 277.58 933.199 276.735 932.697 275.61C910.874 226.637 931.674 169.129 979.482 145.8C980.605 145.3 981.727 144.8 982.85 144.299C1032.53 122.16 1090.48 144.238 1113.27 193.117C1113.52 193.679 1113.77 194.242 1114.02 194.805Z" fill="#CCD5E3"/>
<path d="M1115.4 197.901C1135.42 247.342 1112.99 304.225 1063.87 326.115C1014.75 348.005 957.459 326.645 934.077 278.705C914.063 229.264 936.488 172.381 985.609 150.491C1034.6 128.32 1091.9 149.679 1115.4 197.901Z" fill="white"/>
<path opacity="0.3" d="M1073.34 282.428L1021.41 305.569C1018.88 306.695 1016.04 305.6 1014.91 303.067L1003.37 277.174C1002.24 274.641 1003.33 271.795 1005.86 270.669L1057.78 247.529C1060.31 246.403 1063.15 247.498 1064.28 250.031L1075.82 275.924C1076.95 278.457 1075.86 281.303 1073.34 282.428Z" fill="#C9D3E1"/>
<path d="M1103.96 204.687L1089.08 211.316C1086.56 212.442 1083.72 211.347 1082.59 208.814C1081.46 206.281 1082.55 203.436 1085.07 202.31L1099.95 195.68C1102.47 194.555 1105.32 195.649 1106.45 198.182C1107.57 200.715 1106.21 203.686 1103.96 204.687Z" fill="#CBD4E2"/>
<path d="M957.158 270.106L942.281 276.735C939.755 277.861 936.912 276.766 935.784 274.233C934.655 271.7 935.742 268.855 938.268 267.729L953.145 261.099C955.671 259.974 958.514 261.068 959.643 263.601C960.771 266.134 959.404 269.105 957.158 270.106Z" fill="#CBD4E2"/>
<path d="M993.773 174.852C991.247 175.978 988.404 174.883 987.275 172.35L980.753 157.715C979.624 155.182 980.711 152.336 983.237 151.21C985.764 150.084 988.606 151.179 989.735 153.712L996.383 168.629C997.105 171.005 996.018 173.851 993.773 174.852Z" fill="#CBD4E2"/>
<path d="M1027.76 248.091C1035.35 244.706 1038.76 235.787 1035.36 228.171C1031.97 220.554 1023.06 217.124 1015.46 220.509C1007.87 223.894 1004.46 232.812 1007.86 240.429C1011.25 248.045 1020.16 251.476 1027.76 248.091Z" fill="#F2F5FC"/>
<path opacity="0.3" d="M1055.66 153.682C1053.35 153.025 1050.82 154.151 1050.05 156.184L1024.31 229.047C1024.03 229.172 1024.03 229.172 1023.75 229.297C1020.1 230.923 1018.55 234.988 1020.18 238.647C1020.31 238.929 1020.43 239.21 1020.56 239.492L1016.34 251.156C1015.69 253.47 1016.81 256.003 1018.84 256.785C1020.06 257.254 1021.03 257.16 1022.15 256.66C1023.28 256.159 1024.27 255.378 1024.46 254.283L1028.68 242.619C1028.96 242.494 1029.24 242.369 1029.24 242.369C1032.89 240.743 1034.44 236.677 1032.81 233.018C1032.69 232.737 1032.56 232.455 1032.44 232.174L1058.3 159.592C1059.1 156.872 1057.97 154.339 1055.66 153.682Z" fill="#DAE1ED"/>
<path d="M1050.63 152.212C1048.32 151.555 1045.8 152.681 1045.02 154.714L1019.29 227.577C1019.01 227.702 1019.01 227.702 1018.73 227.827C1015.08 229.453 1013.52 233.518 1015.15 237.177C1015.28 237.459 1015.41 237.74 1015.53 238.022L1011.31 249.686C1010.66 252 1011.79 254.533 1013.82 255.315C1015.04 255.784 1016 255.69 1017.13 255.19C1018.25 254.69 1019.25 253.908 1019.43 252.813L1023.65 241.149C1023.93 241.024 1024.21 240.899 1024.21 240.899C1027.86 239.273 1029.42 235.207 1027.79 231.548C1027.66 231.267 1027.54 230.986 1027.41 230.704L1053.27 158.122C1054.07 155.402 1052.67 152.994 1050.63 152.212Z" fill="#CDD0FE"/>
<path d="M977.373 73.8747L984.145 89.073C986.779 94.9834 984.014 101.613 978.4 104.115L952.576 115.622C946.682 118.249 940.059 115.466 937.55 109.837L930.778 94.6387C928.144 88.7283 930.909 82.0987 936.523 79.597L962.346 68.0892C968.241 65.4625 974.864 68.2458 977.373 73.8747Z" fill="url(#paint1_linear)"/>
<path opacity="0.1" d="M977.373 73.8747L984.145 89.073C986.779 94.9834 984.014 101.613 978.4 104.115L952.576 115.622C946.682 118.249 940.059 115.466 937.55 109.837L936.296 107.022C941.241 113.59 947.697 110.713 947.697 110.713L974.363 98.8297C978.012 97.2036 979.72 92.7317 978.089 89.0729L973.198 78.0964C969.812 70.4973 967.154 68.3082 962.346 68.0892C968.241 65.4625 974.864 68.2458 977.373 73.8747Z" fill="#495A7C"/>
<path d="M942.231 109.775C941.389 110.15 940.577 109.837 940.201 108.993L932.425 91.543C932.048 90.6986 932.359 89.8856 933.201 89.5103C934.043 89.1351 934.855 89.4478 935.232 90.2921L943.008 107.742C943.103 108.711 942.793 109.524 942.231 109.775Z" fill="#AEB8C9"/>
<path d="M948.687 106.897C947.845 107.272 947.033 106.96 946.656 106.115L938.88 88.6655C938.504 87.8212 938.815 87.0081 939.657 86.6329C940.499 86.2576 941.311 86.5703 941.687 87.4147L949.463 104.865C949.84 105.709 949.529 106.522 948.687 106.897Z" fill="#AEB8C9"/>
<path d="M955.424 103.895C954.582 104.271 953.77 103.958 953.394 103.114L945.618 85.6638C945.242 84.8195 945.552 84.0064 946.394 83.6312C947.236 83.2559 948.049 83.5686 948.425 84.413L956.201 101.863C956.296 102.832 955.986 103.645 955.424 103.895Z" fill="#AEB8C9"/>
<path d="M961.88 101.018C961.037 101.394 960.225 101.081 959.849 100.236L952.073 82.7866C951.697 81.9423 952.007 81.1292 952.849 80.754C953.691 80.3787 954.504 80.6915 954.88 81.5358L962.656 98.9856C963.032 99.83 962.722 100.643 961.88 101.018Z" fill="#AEB8C9"/>
<path d="M968.617 98.0166C967.775 98.3918 966.963 98.0791 966.586 97.2347L958.81 79.7849C958.434 78.9406 958.744 78.1275 959.587 77.7523C960.429 77.377 961.241 77.6897 961.617 78.5341L969.393 95.9839C969.489 96.9533 969.178 97.7664 968.617 98.0166Z" fill="#AEB8C9"/>
<path d="M975.072 95.1394C974.23 95.5146 973.418 95.2019 973.042 94.3575L965.266 76.9077C964.889 76.0634 965.2 75.2503 966.042 74.8751C966.884 74.4998 967.696 74.8125 968.072 75.6569L975.849 93.1067C976.225 93.951 975.634 94.8892 975.072 95.1394Z" fill="#AEB8C9"/>
<path opacity="0.7" d="M981.528 92.2627C980.686 92.6379 979.873 92.3252 979.497 91.4808L971.721 74.031C971.345 73.1867 971.655 72.3736 972.497 71.9984C973.34 71.6231 974.152 71.9359 974.528 72.7802L982.304 90.23C982.68 91.0744 982.37 91.8874 981.528 92.2627Z" fill="#AEB8C9"/>
<path d="M901.341 173.538L893.578 193.864C891.87 198.336 886.817 200.588 882.069 198.993L870.292 194.458C865.825 192.738 863.567 187.672 865.15 182.919L872.913 162.592C874.621 158.12 879.674 155.869 884.422 157.464L896.199 161.998C900.792 164 903.049 169.066 901.341 173.538Z" fill="#CDD0FE"/>
<path d="M1057.97 103.741L1078.27 111.559C1082.74 113.279 1087.79 111.028 1089.78 106.431L1094.28 94.6412C1095.99 90.1694 1093.73 85.1033 1089.14 83.1018L1068.84 75.2836C1064.37 73.5636 1059.32 75.8151 1057.33 80.4121L1052.83 92.2015C1051.24 96.9548 1053.5 102.021 1057.97 103.741Z" fill="#FFD8C2"/>
<path d="M1022.11 235.427C1022.73 235.151 1023.01 234.423 1022.73 233.8C1022.46 233.178 1021.73 232.898 1021.11 233.174C1020.49 233.451 1020.21 234.179 1020.49 234.801C1020.76 235.423 1021.49 235.703 1022.11 235.427Z" fill="white"/>
</g>
</g>
<defs>
<filter id="filter0_d" x="0" y="0" width="1158" height="310" filterUnits="userSpaceOnUse" color-interpolation-filters="sRGB">
<feFlood flood-opacity="0" result="BackgroundImageFix"/>
<feColorMatrix in="SourceAlpha" type="matrix" values="0 0 0 0 0 0 0 0 0 0 0 0 0 0 0 0 0 0 127 0" result="hardAlpha"/>
<feOffset dx="-4" dy="8"/>
<feGaussianBlur stdDeviation="12"/>
<feColorMatrix type="matrix" values="0 0 0 0 0.172549 0 0 0 0 0.247059 0 0 0 0 0.345098 0 0 0 0.02 0"/>
<feBlend mode="normal" in2="BackgroundImageFix" result="effect1_dropShadow"/>
<feBlend mode="normal" in="SourceGraphic" in2="effect1_dropShadow" result="shape"/>
</filter>
<filter id="filter1_d" x="874.049" y="96.666" width="298.623" height="299.081" filterUnits="userSpaceOnUse" color-interpolation-filters="sRGB">
<feFlood flood-opacity="0" result="BackgroundImageFix"/>
<feColorMatrix in="SourceAlpha" type="matrix" values="0 0 0 0 0 0 0 0 0 0 0 0 0 0 0 0 0 0 127 0" result="hardAlpha"/>
<feOffset dy="11"/>
<feGaussianBlur stdDeviation="11"/>
<feColorMatrix type="matrix" values="0 0 0 0 0.397708 0 0 0 0 0.47749 0 0 0 0 0.575 0 0 0 0.27 0"/>
<feBlend mode="normal" in2="BackgroundImageFix" result="effect1_dropShadow"/>
<feBlend mode="normal" in="SourceGraphic" in2="effect1_dropShadow" result="shape"/>
</filter>
<linearGradient id="paint0_linear" x1="968.958" y1="113.33" x2="1076.33" y2="354.273" gradientUnits="userSpaceOnUse">
<stop stop-color="#FDFEFF"/>
<stop offset="0.9964" stop-color="#ECF0F5"/>
</linearGradient>
<linearGradient id="paint1_linear" x1="949.996" y1="75.093" x2="959.007" y2="95.3137" gradientUnits="userSpaceOnUse">
<stop stop-color="#B0BACC"/>
<stop offset="1" stop-color="#969EAE"/>
</linearGradient>
<clipPath id="clip0">
<rect x="28" y="16" width="1110" height="262" rx="8" fill="white"/>
</clipPath>
</defs>
</svg>
