<svg width="20" height="20" viewBox="0 0 20 20" fill="none" xmlns="http://www.w3.org/2000/svg">
<path d="M9.16667 2.5H3.33333C2.8731 2.5 2.5 2.8731 2.5 3.33333V9.16667C2.5 9.6269 2.8731 10 3.33333 10H9.16667C9.6269 10 10 9.6269 10 9.16667V3.33333C10 2.8731 9.6269 2.5 9.16667 2.5Z" stroke="#CDD0FE" stroke-width="1.5" stroke-linecap="round" stroke-linejoin="round"/>
<path d="M17.0833 13.3333H13.7499C13.5198 13.3333 13.3333 13.5198 13.3333 13.7499V17.0833C13.3333 17.3134 13.5198 17.4999 13.7499 17.4999H17.0833C17.3134 17.4999 17.4999 17.3134 17.4999 17.0833V13.7499C17.4999 13.5198 17.3134 13.3333 17.0833 13.3333Z" stroke="#CDD0FE" stroke-width="1.5" stroke-linecap="round" stroke-linejoin="round"/>
<path d="M17.0833 5.83325H13.7499C13.5198 5.83325 13.3333 6.0198 13.3333 6.24992V9.58325C13.3333 9.81337 13.5198 9.99992 13.7499 9.99992H17.0833C17.3134 9.99992 17.4999 9.81337 17.4999 9.58325V6.24992C17.4999 6.0198 17.3134 5.83325 17.0833 5.83325Z" stroke="#CDD0FE" stroke-width="1.5" stroke-linecap="round" stroke-linejoin="round"/>
<path d="M9.58325 13.3333H6.24992C6.0198 13.3333 5.83325 13.5198 5.83325 13.7499V17.0833C5.83325 17.3134 6.0198 17.4999 6.24992 17.4999H9.58325C9.81337 17.4999 9.99992 17.3134 9.99992 17.0833V13.7499C9.99992 13.5198 9.81337 13.3333 9.58325 13.3333Z" stroke="#CDD0FE" stroke-width="1.5" stroke-linecap="round" stroke-linejoin="round"/>
</svg>
