<svg width="32" height="32" viewBox="0 0 32 32" fill="none" xmlns="http://www.w3.org/2000/svg">
<rect width="32" height="32" rx="16" transform="matrix(1 -8.74228e-08 -8.74228e-08 -1 0 32)" fill="#EDF2F7"/>
<path d="M14.9036 12.6081C14.8677 12.6207 14.8333 12.6332 14.8015 12.6451L14.5927 12.7328C14.1481 12.9193 13.4642 13.3103 12.7735 13.7734C12.0849 14.2352 11.43 14.7415 11.0293 15.1467L10.7825 15.405C10.7187 15.4743 10.666 15.5363 10.6413 15.5716L10.6359 15.5793L10.6303 15.5868C10.5471 15.6969 10.5 15.8415 10.5 15.9949C10.5 16.1645 10.5489 16.3131 10.6353 16.4335L10.8724 16.6893L10.9264 16.7448L10.9265 16.7447L10.9355 16.7545C11.291 17.1398 11.9657 17.6779 12.705 18.1819C13.4423 18.6845 14.1895 19.1161 14.6771 19.3103L14.8316 19.3695C15.0243 19.4383 15.2215 19.4926 15.308 19.4999C15.4302 19.498 15.5479 19.4699 15.6654 19.4126C15.8036 19.3317 15.9138 19.2073 15.9757 19.065C15.9825 19.0459 15.9951 19.0049 16.0121 18.9405C16.0296 18.874 16.0478 18.7977 16.0646 18.7237C16.0813 18.6501 16.096 18.5813 16.1064 18.5307C16.1105 18.511 16.1138 18.4945 16.1163 18.482L16.122 18.4512C16.2114 17.9648 16.2676 17.1639 16.2756 16.2372C16.2756 16.2368 16.2756 16.2365 16.2756 16.2361L16.2766 16.0044C16.2766 16.0041 16.2766 16.0037 16.2766 16.0034C16.2766 15.0456 16.2207 14.1845 16.1402 13.6335L16.0679 13.2881C16.048 13.1976 16.0263 13.1069 16.0041 13.0288C15.9929 12.9896 15.9825 12.9567 15.9732 12.9307C15.9686 12.9178 15.9648 12.9079 15.9617 12.9006C15.9589 12.8938 15.9573 12.8908 15.9574 12.8908L15.9574 12.8909C15.8295 12.6443 15.5844 12.5 15.333 12.5L15.3061 12.5C15.2856 12.5015 15.2371 12.5088 15.1581 12.5293C15.0783 12.5499 14.9893 12.5781 14.9036 12.6081ZM16.1204 18.4606C16.1205 18.4604 16.1205 18.4604 16.1204 18.4606L16.1204 18.4606ZM18.5757 15.7039L18.5537 15.7059L18.5317 15.7059C18.3782 15.7059 18.2455 15.8329 18.2455 15.9997C18.2455 16.167 18.3779 16.2935 18.5317 16.2935L18.5537 16.2935L18.5757 16.2955L21.0161 16.5113C21.2807 16.5015 21.5 16.2805 21.5 15.9997C21.5 15.7189 21.2807 15.4979 21.0161 15.4881L18.5757 15.7039Z" fill="#200E32" stroke="#02075C"/>
</svg>
