<svg width="8" height="8" viewBox="0 0 8 8" fill="none" xmlns="http://www.w3.org/2000/svg">
<path d="M4.754 0.912159C4.79267 0.949828 4.958 1.09206 5.094 1.22455C5.94933 2.0013 7.34933 4.0276 7.77667 5.08816C7.84533 5.24923 7.99067 5.65644 8 5.874C8 6.08248 7.952 6.28121 7.85467 6.47085C7.71867 6.70726 7.50467 6.8969 7.252 7.00081C7.07667 7.0677 6.552 7.17162 6.54267 7.17162C5.96867 7.27553 5.036 7.33268 4.00533 7.33268C3.02333 7.33268 2.12867 7.27553 1.546 7.19045C1.53667 7.18071 0.884667 7.0768 0.661333 6.96314C0.253333 6.75467 0 6.34746 0 5.91167V5.874C0.01 5.59019 0.263333 4.99334 0.272667 4.99334C0.700667 3.98993 2.032 2.01039 2.91667 1.21481C2.91667 1.21481 3.144 0.990744 3.286 0.893325C3.49 0.741353 3.74267 0.666016 3.99533 0.666016C4.27733 0.666016 4.54 0.751094 4.754 0.912159Z" fill="#00B361"/>
</svg>
