<svg width="20" height="21" viewBox="0 0 20 21" fill="none" xmlns="http://www.w3.org/2000/svg">
<path d="M8.33333 17.9999C8.79357 17.9999 9.16667 17.6268 9.16667 17.1666C9.16667 16.7063 8.79357 16.3333 8.33333 16.3333C7.8731 16.3333 7.5 16.7063 7.5 17.1666C7.5 17.6268 7.8731 17.9999 8.33333 17.9999Z" stroke="#EBECFF" stroke-width="1.5" stroke-linecap="round" stroke-linejoin="round"/>
<path d="M15.0001 17.9999C15.4603 17.9999 15.8334 17.6268 15.8334 17.1666C15.8334 16.7063 15.4603 16.3333 15.0001 16.3333C14.5398 16.3333 14.1667 16.7063 14.1667 17.1666C14.1667 17.6268 14.5398 17.9999 15.0001 17.9999Z" stroke="#EBECFF" stroke-width="1.5" stroke-linecap="round" stroke-linejoin="round"/>
<path d="M1.66675 3H4.58341C4.58341 3 4.92753 4.52369 5.14802 5.5C5.5886 7.45082 6.19371 10.1302 6.54871 11.7021C6.72033 12.4619 7.39506 13 8.17408 13H15.3298C16.111 13 16.7873 12.4574 16.9567 11.6949L18.3334 5.5" stroke="#EBECFF" stroke-width="1.5" stroke-linecap="round" stroke-linejoin="round"/>
<path d="M18.3334 5.5H5.41675" stroke="#EBECFF" stroke-width="1.5" stroke-linecap="round" stroke-linejoin="round"/>
</svg>
