<svg width="24" height="24" viewBox="0 0 24 24" fill="none" xmlns="http://www.w3.org/2000/svg">
<path fill-rule="evenodd" clip-rule="evenodd" d="M5.14648 11.9749C5.14648 7.57029 8.71714 3.99963 13.1218 3.99963C17.5264 3.99963 21.0971 7.57029 21.0971 11.9749C21.0971 16.3795 17.5264 19.9502 13.1218 19.9502C11.2749 19.9502 9.57472 19.3225 8.22286 18.2687L6.708 19.6152C8.4421 21.0725 10.6794 21.9502 13.1218 21.9502C18.631 21.9502 23.0971 17.4841 23.0971 11.9749C23.0971 6.46572 18.631 1.99963 13.1218 1.99963C7.61257 1.99963 3.14648 6.46572 3.14648 11.9749C3.14648 12.3115 3.16315 12.6442 3.19571 12.9722H5.20823C5.16748 12.6455 5.14648 12.3126 5.14648 11.9749Z" fill="#5C6F7F"/>
<path d="M9 11H0L4.5 16L9 11Z" fill="#5C6F7F"/>
</svg>
