<svg width="20" height="20" viewBox="0 0 20 20" fill="none" xmlns="http://www.w3.org/2000/svg">
<path d="M8.33333 17.5002C8.79357 17.5002 9.16667 17.1271 9.16667 16.6668C9.16667 16.2066 8.79357 15.8335 8.33333 15.8335C7.8731 15.8335 7.5 16.2066 7.5 16.6668C7.5 17.1271 7.8731 17.5002 8.33333 17.5002Z" stroke="white" stroke-width="1.5" stroke-linecap="round" stroke-linejoin="round"/>
<path d="M15 17.5002C15.4602 17.5002 15.8333 17.1271 15.8333 16.6668C15.8333 16.2066 15.4602 15.8335 15 15.8335C14.5398 15.8335 14.1667 16.2066 14.1667 16.6668C14.1667 17.1271 14.5398 17.5002 15 17.5002Z" stroke="white" stroke-width="1.5" stroke-linecap="round" stroke-linejoin="round"/>
<path d="M1.66667 2.5H4.58333C4.58333 2.5 4.92745 4.02369 5.14794 5C5.58852 6.95082 6.19363 9.63017 6.54863 11.2021C6.72025 11.9619 7.39498 12.5 8.174 12.5H15.3298C16.1109 12.5 16.7873 11.9574 16.9567 11.1949L18.3333 5" stroke="white" stroke-width="1.5" stroke-linecap="round" stroke-linejoin="round"/>
<path d="M18.3333 5H5.41667" stroke="white" stroke-width="1.5" stroke-linecap="round" stroke-linejoin="round"/>
</svg>
