<svg width="20" height="21" viewBox="0 0 20 21" fill="none" xmlns="http://www.w3.org/2000/svg">
<path d="M7.50008 9.66667C9.34103 9.66667 10.8334 8.17428 10.8334 6.33333C10.8334 4.49238 9.34103 3 7.50008 3C5.65913 3 4.16675 4.49238 4.16675 6.33333C4.16675 8.17428 5.65913 9.66667 7.50008 9.66667Z" stroke="#EBECFF" stroke-width="1.5" stroke-linecap="round" stroke-linejoin="round"/>
<path d="M1.66675 18V14.6667C1.66675 13.7462 2.41294 13 3.33341 13H11.6667C12.5872 13 13.3334 13.7462 13.3334 14.6667V18" stroke="#EBECFF" stroke-width="1.5" stroke-linecap="round" stroke-linejoin="round"/>
<path d="M13.3333 3C14.0503 3.18358 14.6858 3.60058 15.1396 4.18526C15.5934 4.76993 15.8398 5.48902 15.8398 6.22917C15.8398 6.96931 15.5934 7.6884 15.1396 8.27307C14.6858 8.85775 14.0503 9.27475 13.3333 9.45833" stroke="#EBECFF" stroke-width="1.5" stroke-linecap="round" stroke-linejoin="round"/>
<path d="M15.8333 13H16.6666C17.5871 13 18.3333 13.7462 18.3333 14.6667V18" stroke="#EBECFF" stroke-width="1.5" stroke-linecap="round" stroke-linejoin="round"/>
</svg>
