<svg width="20" height="21" viewBox="0 0 20 21" fill="none" xmlns="http://www.w3.org/2000/svg">
<path d="M8.33342 14.6667H11.6667M15.0001 14.6667H17.5001C17.9603 14.6667 18.3334 14.2937 18.3334 13.8334V11.026C18.3334 10.6824 18.1226 10.3741 17.8025 10.2494L14.1667 8.83342L11.6667 4.66675H5.00008L3.33341 8.83342H1.66675V14.6667H5.00008H15.0001ZM15.0001 14.6667C15.0001 15.5872 14.2539 16.3334 13.3334 16.3334C12.4129 16.3334 11.6667 15.5872 11.6667 14.6667H15.0001ZM15.0001 14.6667C15.0001 13.7462 14.2539 13.0001 13.3334 13.0001C12.4129 13.0001 11.6667 13.7462 11.6667 14.6667H15.0001ZM5.00008 14.6667C5.00008 15.5872 5.74627 16.3334 6.66675 16.3334C7.58722 16.3334 8.33342 15.5872 8.33342 14.6667H5.00008ZM5.00008 14.6667C5.00008 13.7462 5.74627 13.0001 6.66675 13.0001C7.58722 13.0001 8.33342 13.7462 8.33342 14.6667H5.00008Z" stroke="#EBECFF" stroke-width="1.5" stroke-linecap="round" stroke-linejoin="round"/>
</svg>
